<svg width="28" height="28" viewBox="0 0 28 28" fill="none" xmlns="http://www.w3.org/2000/svg">
<path d="M14 0C11.2311 0 8.52431 0.821086 6.22202 2.35943C3.91973 3.89776 2.12532 6.08427 1.06569 8.64243C0.006066 11.2006 -0.271181 14.0155 0.269012 16.7313C0.809205 19.447 2.14258 21.9416 4.10051 23.8995C6.05845 25.8574 8.55301 27.1908 11.2687 27.731C13.9845 28.2712 16.7994 27.9939 19.3576 26.9343C21.9157 25.8747 24.1022 24.0803 25.6406 21.778C27.1789 19.4757 28 16.7689 28 14C27.9957 10.2883 26.5193 6.72985 23.8947 4.10528C21.2702 1.48071 17.7117 0.00432276 14 0V0ZM22.0815 9.56667L14.0957 20.4038C14.0014 20.5289 13.8831 20.634 13.7478 20.7129C13.6125 20.7918 13.4628 20.8429 13.3075 20.8633C13.1522 20.8837 12.9944 20.873 12.8433 20.8318C12.6921 20.7906 12.5507 20.7196 12.4273 20.6232L6.72467 16.0638C6.60502 15.9681 6.50539 15.8497 6.43149 15.7154C6.35758 15.5812 6.31085 15.4337 6.29395 15.2814C6.25982 14.9737 6.34928 14.6652 6.54267 14.4235C6.73606 14.1818 7.01752 14.0269 7.32514 13.9928C7.47746 13.9759 7.63162 13.9891 7.77881 14.0318C7.926 14.0745 8.06335 14.1457 8.183 14.2415L12.9383 18.046L20.2032 8.1865C20.2906 8.05526 20.4038 7.94311 20.5358 7.85684C20.6678 7.77056 20.816 7.71195 20.9713 7.68455C21.1266 7.65715 21.2859 7.66152 21.4394 7.6974C21.593 7.73328 21.7377 7.79993 21.8648 7.89331C21.9919 7.9867 22.0988 8.10488 22.1789 8.24073C22.259 8.37657 22.3108 8.52724 22.331 8.68365C22.3513 8.84006 22.3396 8.99895 22.2967 9.15072C22.2538 9.30249 22.1806 9.44399 22.0815 9.56667V9.56667Z" fill="#6D72F6"/>
</svg>
