<svg width="160" height="34" viewBox="0 0 160 34" fill="none" xmlns="http://www.w3.org/2000/svg">
<path d="M158.164 16.6862L154.383 16.9189C154.319 16.5958 154.18 16.305 153.966 16.0465C153.753 15.7815 153.472 15.5715 153.123 15.4164C152.78 15.2548 152.37 15.1741 151.892 15.1741C151.252 15.1741 150.713 15.3098 150.273 15.5812C149.834 15.8461 149.614 16.2016 149.614 16.6475C149.614 17.0029 149.756 17.3034 150.04 17.549C150.325 17.7945 150.813 17.9916 151.504 18.1402L154.199 18.6831C155.647 18.9803 156.726 19.4586 157.437 20.1177C158.147 20.7769 158.503 21.6428 158.503 22.7155C158.503 23.6914 158.215 24.5476 157.64 25.2843C157.071 26.021 156.29 26.5962 155.294 27.0097C154.306 27.4169 153.165 27.6204 151.873 27.6204C149.902 27.6204 148.331 27.2101 147.162 26.3894C145.998 25.5622 145.317 24.4377 145.116 23.016L149.178 22.8028C149.301 23.4038 149.598 23.8626 150.07 24.1793C150.541 24.4894 151.146 24.6445 151.882 24.6445C152.606 24.6445 153.188 24.5056 153.627 24.2277C154.073 23.9434 154.299 23.5783 154.306 23.1324C154.299 22.7576 154.141 22.4506 153.831 22.2115C153.52 21.9659 153.042 21.7785 152.396 21.6493L149.818 21.1355C148.364 20.8447 147.281 20.3407 146.57 19.6233C145.866 18.906 145.514 17.9916 145.514 16.8801C145.514 15.9237 145.772 15.0997 146.289 14.4083C146.813 13.7168 147.546 13.1837 148.49 12.8089C149.439 12.434 150.551 12.2466 151.824 12.2466C153.705 12.2466 155.184 12.6441 156.264 13.4389C157.349 14.2338 157.983 15.3162 158.164 16.6862Z" fill="#B5B5D4"/>
<path d="M142.836 16.6862L139.055 16.9189C138.991 16.5958 138.852 16.305 138.638 16.0465C138.425 15.7815 138.144 15.5715 137.795 15.4164C137.453 15.2548 137.042 15.1741 136.564 15.1741C135.924 15.1741 135.385 15.3098 134.945 15.5812C134.506 15.8461 134.286 16.2016 134.286 16.6475C134.286 17.0029 134.428 17.3034 134.713 17.549C134.997 17.7945 135.485 17.9916 136.176 18.1402L138.871 18.6831C140.319 18.9803 141.398 19.4586 142.109 20.1177C142.82 20.7769 143.175 21.6428 143.175 22.7155C143.175 23.6914 142.887 24.5476 142.312 25.2843C141.744 26.021 140.962 26.5962 139.966 27.0097C138.978 27.4169 137.837 27.6204 136.545 27.6204C134.574 27.6204 133.003 27.2101 131.834 26.3894C130.67 25.5622 129.989 24.4377 129.788 23.016L133.85 22.8028C133.973 23.4038 134.27 23.8626 134.742 24.1793C135.213 24.4894 135.818 24.6445 136.554 24.6445C137.278 24.6445 137.86 24.5056 138.299 24.2277C138.745 23.9434 138.971 23.5783 138.978 23.1324C138.971 22.7576 138.813 22.4506 138.503 22.2115C138.193 21.9659 137.714 21.7785 137.068 21.6493L134.49 21.1355C133.036 20.8447 131.953 20.3407 131.242 19.6233C130.538 18.906 130.186 17.9916 130.186 16.8801C130.186 15.9237 130.444 15.0997 130.961 14.4083C131.485 13.7168 132.218 13.1837 133.162 12.8089C134.112 12.434 135.223 12.2466 136.496 12.2466C138.377 12.2466 139.857 12.6441 140.936 13.4389C142.021 14.2338 142.655 15.3162 142.836 16.6862Z" fill="#B5B5D4"/>
<path d="M120.919 27.6204C119.387 27.6204 118.069 27.3102 116.964 26.6899C115.865 26.063 115.019 25.1777 114.424 24.0339C113.83 22.8836 113.532 21.5233 113.532 19.9529C113.532 18.4214 113.83 17.0772 114.424 15.9205C115.019 14.7637 115.856 13.8622 116.935 13.216C118.021 12.5698 119.294 12.2466 120.754 12.2466C121.736 12.2466 122.651 12.405 123.497 12.7216C124.35 13.0318 125.094 13.5003 125.727 14.1272C126.367 14.754 126.864 15.5424 127.22 16.4924C127.575 17.4359 127.753 18.5409 127.753 19.8075V20.9417H115.18V18.3826H123.866C123.866 17.7881 123.736 17.2614 123.478 16.8026C123.219 16.3437 122.861 15.9851 122.402 15.7266C121.95 15.4616 121.423 15.3292 120.822 15.3292C120.195 15.3292 119.639 15.4746 119.155 15.7654C118.676 16.0497 118.302 16.4342 118.03 16.9189C117.759 17.3971 117.62 17.9302 117.613 18.5183V20.9513C117.613 21.688 117.749 22.3246 118.021 22.8609C118.298 23.3973 118.689 23.8109 119.193 24.1017C119.697 24.3925 120.295 24.5379 120.987 24.5379C121.446 24.5379 121.866 24.4733 122.247 24.344C122.628 24.2148 122.954 24.0209 123.226 23.7624C123.497 23.5039 123.704 23.1873 123.846 22.8125L127.665 23.0645C127.472 23.9822 127.074 24.7835 126.473 25.4685C125.879 26.147 125.11 26.6769 124.166 27.0582C123.229 27.433 122.147 27.6204 120.919 27.6204Z" fill="#B5B5D4"/>
<path d="M101.282 18.7219V27.3296H97.1531V12.4405H101.089V15.0674H101.263C101.593 14.2015 102.145 13.5165 102.921 13.0124C103.696 12.5019 104.636 12.2466 105.741 12.2466C106.775 12.2466 107.677 12.4728 108.446 12.9252C109.215 13.3775 109.813 14.0238 110.239 14.8639C110.666 15.6975 110.879 16.6927 110.879 17.8494V27.3296H106.75V18.5861C106.756 17.675 106.523 16.9641 106.052 16.4536C105.58 15.9366 104.93 15.6781 104.103 15.6781C103.548 15.6781 103.056 15.7977 102.63 16.0368C102.21 16.2759 101.88 16.6248 101.641 17.0837C101.408 17.536 101.289 18.0821 101.282 18.7219Z" fill="#B5B5D4"/>
<path d="M89.7156 27.3297V12.4406H93.845V27.3297H89.7156ZM91.79 10.5213C91.1761 10.5213 90.6494 10.3177 90.21 9.91057C89.777 9.49698 89.5605 9.00262 89.5605 8.42747C89.5605 7.85879 89.777 7.37089 90.21 6.96376C90.6494 6.55018 91.1761 6.34338 91.79 6.34338C92.404 6.34338 92.9274 6.55018 93.3604 6.96376C93.7998 7.37089 94.0195 7.85879 94.0195 8.42747C94.0195 9.00262 93.7998 9.49698 93.3604 9.91057C92.9274 10.3177 92.404 10.5213 91.79 10.5213Z" fill="#B5B5D4"/>
<path d="M86.7761 16.6862L82.9957 16.9189C82.9311 16.5958 82.7921 16.305 82.5789 16.0465C82.3656 15.7815 82.0845 15.5715 81.7355 15.4164C81.393 15.2548 80.9827 15.1741 80.5045 15.1741C79.8647 15.1741 79.3251 15.3098 78.8857 15.5812C78.4462 15.8461 78.2265 16.2016 78.2265 16.6475C78.2265 17.0029 78.3687 17.3034 78.653 17.549C78.9374 17.7945 79.4253 17.9916 80.1167 18.1402L82.8115 18.6831C84.2591 18.9803 85.3383 19.4586 86.0491 20.1177C86.76 20.7769 87.1154 21.6428 87.1154 22.7155C87.1154 23.6914 86.8278 24.5476 86.2527 25.2843C85.684 26.021 84.9021 26.5962 83.9069 27.0097C82.9181 27.4169 81.7775 27.6204 80.4851 27.6204C78.5141 27.6204 76.9437 27.2101 75.7741 26.3894C74.6109 25.5622 73.9291 24.4377 73.7288 23.016L77.7903 22.8028C77.9131 23.4038 78.2104 23.8626 78.6821 24.1793C79.1538 24.4894 79.7581 24.6445 80.4948 24.6445C81.2186 24.6445 81.8002 24.5056 82.2396 24.2277C82.6855 23.9434 82.9117 23.5783 82.9181 23.1324C82.9117 22.7576 82.7533 22.4506 82.4432 22.2115C82.133 21.9659 81.6548 21.7785 81.0085 21.6493L78.4301 21.1355C76.9761 20.8447 75.8936 20.3407 75.1828 19.6233C74.4784 18.906 74.1262 17.9916 74.1262 16.8801C74.1262 15.9237 74.3847 15.0997 74.9017 14.4083C75.4251 13.7168 76.1586 13.1837 77.1021 12.8089C78.052 12.434 79.1635 12.2466 80.4366 12.2466C82.3171 12.2466 83.797 12.6441 84.8762 13.4389C85.9619 14.2338 86.5952 15.3162 86.7761 16.6862Z" fill="#B5B5D4"/>
<path d="M66.9555 20.9902V12.4406H71.0849V27.3297H67.1203V24.6252H66.9652C66.6292 25.4976 66.0702 26.1988 65.2882 26.7287C64.5128 27.2586 63.566 27.5235 62.4481 27.5235C61.4529 27.5235 60.5772 27.2974 59.8211 26.845C59.065 26.3926 58.4737 25.7496 58.0472 24.916C57.6272 24.0824 57.4139 23.0839 57.4075 21.9207V12.4406H61.5369V21.184C61.5433 22.0629 61.7792 22.7576 62.2445 23.2681C62.7098 23.7786 63.3334 24.0339 64.1153 24.0339C64.6129 24.0339 65.0782 23.9208 65.5112 23.6946C65.9442 23.462 66.2931 23.1195 66.5581 22.6671C66.8295 22.2148 66.962 21.6558 66.9555 20.9902Z" fill="#B5B5D4"/>
<path d="M40.1316 27.3296V7.47748H44.261V14.9414H44.387C44.568 14.5408 44.8297 14.1336 45.1722 13.72C45.5211 13.3 45.9735 12.951 46.5293 12.6732C47.0915 12.3888 47.7894 12.2466 48.623 12.2466C49.7087 12.2466 50.7104 12.531 51.628 13.0997C52.5456 13.6619 53.2791 14.5117 53.8284 15.649C54.3777 16.7799 54.6524 18.1984 54.6524 19.9045C54.6524 21.5653 54.3842 22.9676 53.8478 24.1114C53.3179 25.2488 52.5941 26.1115 51.6765 26.6996C50.7653 27.2812 49.7442 27.572 48.6133 27.572C47.812 27.572 47.1303 27.4395 46.568 27.1745C46.0123 26.9096 45.5567 26.5768 45.2013 26.1761C44.8458 25.769 44.5744 25.3586 44.387 24.945H44.2028V27.3296H40.1316ZM44.1738 19.8851C44.1738 20.7704 44.2965 21.5426 44.5421 22.2018C44.7877 22.861 45.1431 23.3747 45.6084 23.7431C46.0737 24.1049 46.6391 24.2859 47.3047 24.2859C47.9768 24.2859 48.5455 24.1017 49.0108 23.7334C49.4761 23.3586 49.8283 22.8416 50.0674 22.1824C50.3129 21.5168 50.4357 20.751 50.4357 19.8851C50.4357 19.0256 50.3162 18.2695 50.0771 17.6168C49.8379 16.9641 49.4858 16.4536 49.0205 16.0852C48.5552 15.7169 47.9833 15.5327 47.3047 15.5327C46.6327 15.5327 46.064 15.7104 45.5987 16.0659C45.1399 16.4213 44.7877 16.9253 44.5421 17.578C44.2965 18.2307 44.1738 18.9997 44.1738 19.8851Z" fill="#B5B5D4"/>
<path fill-rule="evenodd" clip-rule="evenodd" d="M16.5514 12.4312L21.0183 16.8981L16.7651 21.1512L12.2982 16.6844L16.5514 12.4312ZM11.9716 7.85138L9.17102 5.05082C9.01128 4.89107 9.01128 4.63207 9.17102 4.47232L13.1723 0.471007C13.3321 0.311259 13.5911 0.311259 13.7508 0.471007L27.43 14.1502C28.9476 15.6678 28.9476 18.1283 27.43 19.646L21.3449 25.731L24.1455 28.5316C24.3052 28.6914 24.3052 28.9504 24.1455 29.1101L20.1442 33.1114C19.9844 33.2712 19.7254 33.2712 19.5657 33.1114L5.8865 19.4322C4.36889 17.9146 4.36889 15.4541 5.8865 13.9365L11.9716 7.85138Z" fill="#B5B5D4"/>
</svg>
