<svg width="190" height="42" viewBox="0 0 190 42" fill="none" xmlns="http://www.w3.org/2000/svg">
<path d="M176.649 15.9024H180.028L180.16 17.6711C180.6 17.0023 181.146 16.4919 181.797 16.1399C182.466 15.7704 183.205 15.5856 184.015 15.5856C187.306 15.5856 188.942 17.6007 188.925 21.6308V22.3436H188.951V29.1016H185.387V22.3436H185.361C185.361 21.0765 185.141 20.1965 184.701 19.7037C184.279 19.1934 183.663 18.9382 182.853 18.9382C181.991 18.9382 181.331 19.2198 180.873 19.7829C180.433 20.3285 180.213 21.1205 180.213 22.1588V29.1016H176.649V15.9024Z" fill="#B5B5D4"/>
<path d="M167.515 29.4184C166.177 29.4184 164.98 29.128 163.924 28.5472C162.868 27.9489 162.041 27.1305 161.443 26.0922C160.862 25.0362 160.572 23.8395 160.572 22.502C160.572 21.1645 160.862 19.9765 161.443 18.9382C162.041 17.8822 162.86 17.0639 163.898 16.4831C164.936 15.8848 166.124 15.5856 167.462 15.5856C168.799 15.5856 169.987 15.8848 171.026 16.4831C172.082 17.0639 172.9 17.8822 173.481 18.9382C174.079 19.9765 174.378 21.1645 174.378 22.502C174.378 23.8395 174.088 25.0362 173.507 26.0922C172.926 27.1305 172.108 27.9489 171.052 28.5472C170.014 29.128 168.835 29.4184 167.515 29.4184ZM164.241 22.502C164.241 23.5755 164.54 24.4555 165.139 25.1418C165.755 25.8106 166.547 26.145 167.515 26.145C168.465 26.145 169.239 25.8106 169.838 25.1418C170.436 24.4555 170.735 23.5755 170.735 22.502C170.735 21.4284 170.427 20.5573 169.811 19.8885C169.213 19.2022 168.43 18.859 167.462 18.859C166.529 18.859 165.755 19.2022 165.139 19.8885C164.54 20.5573 164.241 21.4284 164.241 22.502Z" fill="#B5B5D4"/>
<path d="M154.535 15.9024H158.099V29.1017H154.535V15.9024ZM156.33 13.8169C155.767 13.8169 155.283 13.6145 154.878 13.2098C154.474 12.805 154.271 12.3298 154.271 11.7842C154.271 11.2211 154.474 10.7371 154.878 10.3323C155.301 9.92755 155.785 9.72516 156.33 9.72516C156.876 9.72516 157.351 9.92755 157.756 10.3323C158.161 10.7371 158.363 11.2211 158.363 11.7842C158.363 12.3298 158.161 12.805 157.756 13.2098C157.369 13.6145 156.893 13.8169 156.33 13.8169Z" fill="#B5B5D4"/>
<path d="M149.142 29.4185C147.681 29.4185 146.564 29.0577 145.789 28.3361C145.033 27.6146 144.654 26.5762 144.654 25.2211V18.9118H142.542V15.9024H144.654V11.7842H148.218V15.9024H151.492V18.9118H148.218V24.4291C148.218 25.0099 148.333 25.4411 148.561 25.7227C148.808 25.9867 149.177 26.1186 149.67 26.1186C150.022 26.1186 150.418 25.9603 150.858 25.6435L152.125 28.3097C151.685 28.6441 151.201 28.9081 150.673 29.1017C150.145 29.3129 149.635 29.4185 149.142 29.4185Z" fill="#B5B5D4"/>
<path d="M137.469 27.5969C136.73 28.8112 135.516 29.4184 133.826 29.4184C132.242 29.4184 131.01 29.0664 130.13 28.3625C129.268 27.6585 128.837 26.6642 128.837 25.3794C128.837 23.9891 129.303 22.9332 130.236 22.2116C131.169 21.49 132.489 21.1293 134.196 21.1293H137.337C137.091 19.4926 136.29 18.6742 134.935 18.6742C133.773 18.6742 132.893 19.167 132.295 20.1525L129.154 19.0702C129.576 18.0846 130.262 17.2575 131.213 16.5887C132.181 15.92 133.421 15.5856 134.935 15.5856C136.906 15.5856 138.402 16.1399 139.423 17.2487C140.443 18.3398 140.936 19.8533 140.901 21.7892L140.848 29.1016H137.522L137.469 27.5969ZM132.48 25.2738C132.48 25.6434 132.656 25.9426 133.008 26.1714C133.36 26.3826 133.844 26.4882 134.46 26.4882C135.005 26.4882 135.498 26.3562 135.938 26.0922C136.396 25.8282 136.756 25.485 137.02 25.0626C137.284 24.6403 137.416 24.2003 137.416 23.7427H135.463C134.389 23.7427 133.624 23.8747 133.166 24.1387C132.709 24.3851 132.48 24.7635 132.48 25.2738Z" fill="#B5B5D4"/>
<path d="M121.527 29.4184C120.155 29.4184 118.931 29.128 117.858 28.5472C116.784 27.9489 115.94 27.1305 115.324 26.0922C114.725 25.0362 114.426 23.8395 114.426 22.502C114.426 21.1645 114.725 19.9765 115.324 18.9382C115.922 17.8822 116.758 17.0639 117.831 16.4831C118.905 15.8848 120.119 15.5856 121.474 15.5856C122.83 15.5856 124.044 15.92 125.117 16.5887C126.209 17.2575 127.001 18.199 127.493 19.4134L124.141 20.6013C123.894 20.0909 123.516 19.6861 123.006 19.387C122.495 19.0878 121.932 18.9382 121.316 18.9382C120.366 18.9382 119.591 19.2726 118.993 19.9413C118.395 20.5925 118.095 21.446 118.095 22.502C118.095 23.5403 118.395 24.3939 118.993 25.0626C119.609 25.7314 120.401 26.0658 121.369 26.0658C121.985 26.0658 122.548 25.9074 123.058 25.5906C123.569 25.2562 123.947 24.8163 124.193 24.2707L127.572 25.4586C127.062 26.7082 126.27 27.6849 125.197 28.3889C124.123 29.0752 122.9 29.4184 121.527 29.4184Z" fill="#B5B5D4"/>
<path d="M108.389 15.9024H111.953V29.1017H108.389V15.9024ZM110.185 13.8169C109.621 13.8169 109.137 13.6145 108.733 13.2098C108.328 12.805 108.125 12.3298 108.125 11.7842C108.125 11.2211 108.328 10.7371 108.733 10.3323C109.155 9.92755 109.639 9.72516 110.185 9.72516C110.73 9.72516 111.205 9.92755 111.61 10.3323C112.015 10.7371 112.217 11.2211 112.217 11.7842C112.217 12.3298 112.015 12.805 111.61 13.2098C111.223 13.6145 110.748 13.8169 110.185 13.8169Z" fill="#B5B5D4"/>
<path d="M101.63 10.0947H105.194V29.1017H101.63V10.0947Z" fill="#B5B5D4"/>
<path d="M85.9075 15.9024H89.2865L89.4185 17.7239C89.8585 17.0375 90.4128 16.5095 91.0816 16.1399C91.7679 15.7704 92.5511 15.5856 93.4311 15.5856C94.6278 15.5856 95.6749 15.8672 96.5725 16.4303C97.4876 16.9935 98.1828 17.7942 98.658 18.8326C99.1507 19.8709 99.3971 21.0941 99.3971 22.502C99.3971 23.8923 99.1507 25.1154 98.658 26.1714C98.1828 27.2097 97.4876 28.0105 96.5725 28.5737C95.6749 29.1368 94.6278 29.4184 93.4311 29.4184C92.5687 29.4184 91.8031 29.2424 91.1344 28.8904C90.4656 28.5209 89.9112 28.0017 89.4713 27.3329V34.3813H85.9075V15.9024ZM89.4713 22.502C89.4713 23.5755 89.7529 24.4555 90.316 25.1418C90.8968 25.8106 91.636 26.145 92.5335 26.145C93.4487 26.145 94.2054 25.8018 94.8038 25.1154C95.4021 24.4291 95.7013 23.5579 95.7013 22.502C95.7013 21.446 95.4021 20.5837 94.8038 19.9149C94.223 19.2286 93.4751 18.8854 92.5599 18.8854C91.6448 18.8854 90.8968 19.2198 90.316 19.8885C89.7529 20.5573 89.4713 21.4284 89.4713 22.502Z" fill="#B5B5D4"/>
<path d="M70.0527 15.9024H73.4317L73.5637 17.7239C74.0037 17.0375 74.5581 16.5095 75.2268 16.1399C75.9132 15.7704 76.6964 15.5856 77.5763 15.5856C78.773 15.5856 79.8202 15.8672 80.7177 16.4303C81.6329 16.9935 82.3281 17.7942 82.8032 18.8326C83.296 19.8709 83.5424 21.0941 83.5424 22.502C83.5424 23.8923 83.296 25.1154 82.8032 26.1714C82.3281 27.2097 81.6329 28.0105 80.7177 28.5737C79.8202 29.1368 78.773 29.4184 77.5763 29.4184C76.714 29.4184 75.9484 29.2424 75.2796 28.8904C74.6109 28.5209 74.0565 28.0017 73.6165 27.3329V34.3813H70.0527V15.9024ZM73.6165 22.502C73.6165 23.5755 73.8981 24.4555 74.4613 25.1418C75.0421 25.8106 75.7812 26.145 76.6788 26.145C77.5939 26.145 78.3507 25.8018 78.949 25.1154C79.5474 24.4291 79.8466 23.5579 79.8466 22.502C79.8466 21.446 79.5474 20.5837 78.949 19.9149C78.3683 19.2286 77.6203 18.8854 76.7052 18.8854C75.79 18.8854 75.0421 19.2198 74.4613 19.8885C73.8981 20.5573 73.6165 21.4284 73.6165 22.502Z" fill="#B5B5D4"/>
<path d="M63.739 27.5969C62.9999 28.8112 61.7855 29.4184 60.096 29.4184C58.5121 29.4184 57.2802 29.0664 56.4002 28.3625C55.5379 27.6585 55.1067 26.6642 55.1067 25.3794C55.1067 23.9891 55.5731 22.9332 56.5058 22.2116C57.4386 21.49 58.7585 21.1293 60.4656 21.1293H63.607C63.3606 19.4926 62.5599 18.6742 61.2048 18.6742C60.0432 18.6742 59.1633 19.167 58.5649 20.1525L55.4235 19.0702C55.8458 18.0846 56.5322 17.2575 57.4826 16.5887C58.4505 15.92 59.6912 15.5856 61.2048 15.5856C63.1758 15.5856 64.6718 16.1399 65.6925 17.2487C66.7132 18.3398 67.206 19.8533 67.1708 21.7892L67.118 29.1016H63.7918L63.739 27.5969ZM58.7497 25.2738C58.7497 25.6434 58.9257 25.9426 59.2777 26.1714C59.6296 26.3826 60.1136 26.4882 60.7296 26.4882C61.2751 26.4882 61.7679 26.3562 62.2079 26.0922C62.6655 25.8282 63.0262 25.485 63.2902 25.0626C63.5542 24.6403 63.6862 24.2003 63.6862 23.7427H61.7327C60.6592 23.7427 59.8936 23.8747 59.436 24.1387C58.9785 24.3851 58.7497 24.7635 58.7497 25.2738Z" fill="#B5B5D4"/>
<path fill-rule="evenodd" clip-rule="evenodd" d="M18.9918 33.6098H10.4643C5.44376 33.6098 1.37378 29.5398 1.37378 24.5192C1.37378 20.0916 4.74826 16.4521 9.06571 16.0322C9.37011 11.5992 13.0626 8.0976 17.5729 8.0976H17.8544C20.2807 8.0976 22.4778 9.07847 24.0709 10.6653C26.2068 9.05339 28.8656 8.0976 31.7477 8.0976H32.3882C39.0795 8.0976 44.5038 13.5219 44.5038 20.2132C44.5038 27.6119 38.506 33.6098 31.1072 33.6098L18.9918 33.6098Z" fill="#B5B5D4"/>
</svg>
