<svg width="170" height="33" viewBox="0 0 170 33" fill="none" xmlns="http://www.w3.org/2000/svg">
<path d="M163.629 10.7857H167.605L162.361 25.1923C160.863 29.3414 158.414 31.1566 154.755 30.9549V27.4974C156.8 27.5262 157.838 26.6618 158.529 24.7313L152.623 10.7857H156.685L160.431 20.4669L163.629 10.7857Z" fill="#B5B5D4"/>
<path d="M145.926 10.3824C148.98 10.3824 151.372 12.5146 151.372 16.3467V25.1924H147.655V16.8077C147.655 14.8484 146.474 13.84 144.802 13.84C142.987 13.84 141.633 14.9061 141.633 17.4128V25.1924H137.916V10.7858H141.633V12.3993C142.497 11.1027 143.996 10.3824 145.926 10.3824Z" fill="#B5B5D4"/>
<path d="M130.829 10.7858H134.545V25.1924H130.829V23.4924C129.791 24.789 128.235 25.5957 126.132 25.5957C122.3 25.5957 119.13 22.2822 119.13 17.9891C119.13 13.6959 122.3 10.3824 126.132 10.3824C128.235 10.3824 129.791 11.1892 130.829 12.4857V10.7858ZM126.823 22.0517C129.129 22.0517 130.829 20.4094 130.829 17.9891C130.829 15.5688 129.129 13.9264 126.823 13.9264C124.547 13.9264 122.847 15.5688 122.847 17.9891C122.847 20.4094 124.547 22.0517 126.823 22.0517Z" fill="#B5B5D4"/>
<path d="M110.228 10.3824C114.089 10.3824 117.258 13.6959 117.258 17.9891C117.258 22.2822 114.089 25.5957 110.228 25.5957C108.125 25.5957 106.597 24.8178 105.56 23.4924V30.955H101.843V10.7858H105.56V12.4857C106.597 11.1603 108.125 10.3824 110.228 10.3824ZM109.536 22.0517C111.841 22.0517 113.541 20.4094 113.541 17.9891C113.541 15.5688 111.841 13.9264 109.536 13.9264C107.26 13.9264 105.56 15.5688 105.56 17.9891C105.56 20.4094 107.26 22.0517 109.536 22.0517Z" fill="#B5B5D4"/>
<path d="M93.2408 10.3824C96.5255 10.3824 98.6865 12.7163 98.6865 16.3179V25.1924H94.9696V16.5772C94.9696 14.8772 94.1052 13.84 92.5493 13.84C90.907 13.84 89.8697 14.9349 89.8697 17.0959V25.1924H86.1528V16.5772C86.1528 14.8772 85.2884 13.84 83.7325 13.84C82.1477 13.84 81.024 14.9349 81.024 17.0959V25.1924H77.3071V10.7858H81.024V12.3129C81.8308 11.1027 83.185 10.3824 85.0291 10.3824C86.8155 10.3824 88.1409 11.1315 88.9477 12.4569C89.8409 11.1603 91.2815 10.3824 93.2408 10.3824Z" fill="#B5B5D4"/>
<path d="M67.0566 25.5957C62.8211 25.5957 59.45 22.2822 59.45 17.9891C59.45 13.6959 62.8211 10.3824 67.0566 10.3824C71.2922 10.3824 74.6921 13.6959 74.6921 17.9891C74.6921 22.2822 71.2922 25.5957 67.0566 25.5957ZM67.0566 21.9653C69.2752 21.9653 70.9752 20.3229 70.9752 17.9891C70.9752 15.6552 69.2752 14.0128 67.0566 14.0128C64.8668 14.0128 63.1669 15.6552 63.1669 17.9891C63.1669 20.3229 64.8668 21.9653 67.0566 21.9653Z" fill="#B5B5D4"/>
<path d="M51.9468 25.5957C47.5672 25.5957 44.3401 22.2822 44.3401 17.9891C44.3401 13.6959 47.5672 10.3824 51.9468 10.3824C54.7705 10.3824 57.2196 11.8807 58.4009 14.0993L55.2027 15.9721C54.6264 14.7908 53.3874 14.0417 51.918 14.0417C49.6993 14.0417 48.057 15.684 48.057 17.9891C48.057 20.2653 49.6993 21.9077 51.918 21.9077C53.4162 21.9077 54.6552 21.1873 55.2315 20.006L58.4586 21.85C57.2196 24.0975 54.7705 25.5957 51.9468 25.5957Z" fill="#B5B5D4"/>
<path fill-rule="evenodd" clip-rule="evenodd" d="M12.6194 2.44934C11.3762 2.44934 10.3684 3.45714 10.3684 4.70031V11.731H3.208C1.96483 11.731 0.957031 12.7388 0.957031 13.982V30.5784C0.957031 31.8216 1.96482 32.8294 3.208 32.8294H19.6073C20.8505 32.8294 21.8583 31.8216 21.8583 30.5784V23.5478H29.0187C30.2618 23.5478 31.2696 22.54 31.2696 21.2968V4.70031C31.2696 3.45714 30.2618 2.44934 29.0187 2.44934H12.6194ZM21.8583 23.5478V13.982C21.8583 12.7388 20.8505 11.731 19.6073 11.731H10.3684V21.2968C10.3684 22.54 11.3762 23.5478 12.6194 23.5478H21.8583Z" fill="#B5B5D4"/>
</svg>
