<svg width="134" height="31" viewBox="0 0 134 31" fill="none" xmlns="http://www.w3.org/2000/svg">
<path d="M129 24.597C129.364 24.0329 129.573 23.4142 129.628 22.7408C129.683 22.0675 129.71 21.4033 129.71 20.7482C129.182 21.4215 128.536 21.8946 127.772 22.1676C127.008 22.4406 126.18 22.5771 125.288 22.5771C124.251 22.5771 123.35 22.4224 122.585 22.113C121.839 21.8037 121.248 21.3305 120.811 20.6936C120.374 20.1113 120.074 19.4288 119.91 18.6463C119.747 17.8456 119.665 16.9812 119.665 16.0532V7.97333H123.514V15.5891C123.514 16.0804 123.55 16.5627 123.623 17.0358C123.714 17.4908 123.896 17.8729 124.169 18.1823C124.605 18.8374 125.397 19.165 126.543 19.165C127.089 19.165 127.599 19.0558 128.072 18.8374C128.545 18.6008 128.918 18.2369 129.191 17.7455C129.428 17.327 129.573 16.8903 129.628 16.4353C129.683 15.9622 129.71 15.4526 129.71 14.9067V7.97333H133.586V19.7928C133.586 20.4479 133.577 21.1212 133.559 21.8128C133.559 22.4861 133.504 23.1503 133.395 23.8054C133.304 24.4605 133.131 25.0975 132.876 25.7162C132.622 26.3349 132.267 26.9081 131.812 27.4359C131.175 28.1638 130.338 28.7461 129.3 29.1829C128.281 29.6196 127.053 29.8289 125.615 29.8107C124.56 29.8289 123.514 29.6833 122.476 29.3739C121.439 29.0828 120.484 28.6551 119.61 28.091L120.838 24.8154C121.312 25.1612 121.939 25.4796 122.722 25.7708C123.523 26.0619 124.46 26.2075 125.533 26.2075C126.407 26.2075 127.117 26.0619 127.663 25.7708C128.227 25.4978 128.673 25.1066 129 24.597Z" fill="#B5B5D4"/>
<path d="M111.247 19.165C111.975 19.165 112.548 18.9921 112.967 18.6464C113.403 18.3006 113.667 17.9094 113.758 17.4726H117.798C117.671 18.4007 117.407 19.1832 117.007 19.8201C116.606 20.4571 116.106 20.9848 115.505 21.4033C114.923 21.8219 114.259 22.1222 113.513 22.3041C112.766 22.4861 111.993 22.5771 111.192 22.5771C109.991 22.5771 108.945 22.4133 108.053 22.0858C107.18 21.74 106.452 21.2487 105.869 20.6117C105.287 19.9566 104.841 19.1741 104.532 18.2642C104.241 17.3361 104.095 16.2989 104.095 15.1524C104.095 14.0423 104.259 13.0233 104.587 12.0952C104.914 11.1671 105.378 10.3755 105.979 9.72035C106.597 9.06523 107.353 8.56479 108.244 8.21903C109.136 7.85507 110.155 7.6731 111.302 7.6731C112.139 7.6731 112.921 7.77318 113.649 7.97336C114.395 8.17354 115.05 8.4829 115.614 8.90145C116.197 9.32 116.67 9.85683 117.034 10.512C117.416 11.1489 117.671 11.9132 117.798 12.8049H113.758C113.667 12.3681 113.394 11.9769 112.939 11.6311C112.503 11.2854 111.929 11.1125 111.22 11.1125C110.619 11.1125 110.1 11.2217 109.664 11.44C109.227 11.6584 108.881 11.9587 108.626 12.3408C108.372 12.723 108.19 13.1597 108.081 13.6511C107.971 14.1424 107.917 14.6611 107.917 15.207C107.917 15.7893 107.98 16.3262 108.108 16.8175C108.235 17.2906 108.426 17.7092 108.681 18.0731C108.936 18.4189 109.272 18.6919 109.691 18.892C110.128 19.074 110.646 19.165 111.247 19.165Z" fill="#B5B5D4"/>
<path d="M92.3764 9.80227C93.541 8.40104 94.9787 7.69133 96.6893 7.67313C97.6173 7.65493 98.4362 7.80961 99.146 8.13717C99.8557 8.44654 100.429 8.87418 100.866 9.42012C101.393 10.057 101.757 10.8032 101.958 11.6584C102.158 12.4955 102.258 13.4327 102.258 14.47V22.3588H98.3816V14.7703C98.3816 14.2607 98.3271 13.7785 98.2179 13.3235C98.1269 12.8504 97.9631 12.4501 97.7265 12.1225C97.49 11.7767 97.1715 11.522 96.7711 11.3582C96.389 11.1944 95.9522 11.1125 95.4609 11.1125C94.8422 11.1307 94.3144 11.2672 93.8777 11.522C93.4591 11.7767 93.1407 12.1043 92.9223 12.5046C92.7039 12.8868 92.5493 13.3235 92.4583 13.8149C92.3855 14.288 92.3491 14.7703 92.3491 15.2616V22.3588H88.5002V7.97339H92.1853L92.3764 9.80227Z" fill="#B5B5D4"/>
<path d="M79.8432 19.438C80.3891 19.438 80.8532 19.3561 81.2353 19.1923C81.6357 19.0103 81.9632 18.7192 82.218 18.3188H86.2579C86.0577 19.0649 85.7484 19.7109 85.3298 20.2569C84.9295 20.8028 84.4381 21.2487 83.8558 21.5944C83.2917 21.9402 82.6639 22.1949 81.9723 22.3587C81.2808 22.5043 80.5529 22.5771 79.7886 22.5771C77.4593 22.5771 75.6941 21.922 74.493 20.6117C73.3102 19.3015 72.7188 17.4635 72.7188 15.0978C72.7188 14.0241 72.8734 13.0323 73.1828 12.1225C73.5104 11.2126 73.9653 10.4301 74.5476 9.77494C75.13 9.10162 75.8488 8.58299 76.7041 8.21903C77.5776 7.85507 78.5693 7.6731 79.6794 7.6731C80.9715 7.6731 82.0906 7.90057 83.0369 8.35551C83.9832 8.81046 84.7293 9.43828 85.2752 10.239C85.8394 11.0215 86.2124 11.9405 86.3944 12.996C86.5946 14.0514 86.5946 15.1797 86.3944 16.3807H76.5676C76.6404 17.236 76.9406 17.964 77.4684 18.5645C77.9961 19.1468 78.7877 19.438 79.8432 19.438ZM82.8185 13.733C82.8185 13.278 82.7366 12.8777 82.5729 12.5319C82.4091 12.168 82.1907 11.8768 81.9177 11.6584C81.6448 11.4218 81.3172 11.249 80.9351 11.1398C80.5711 11.0306 80.1889 10.976 79.7886 10.976C78.8241 10.9942 78.0689 11.2581 77.523 11.7676C76.9952 12.2589 76.6859 12.9141 76.5949 13.733H82.8185Z" fill="#B5B5D4"/>
<path d="M66.9142 20.8847C66.3683 21.5035 65.7131 21.9402 64.9488 22.195C64.1845 22.4498 63.3565 22.5771 62.4648 22.5771C61.5731 22.5771 60.6997 22.4407 59.8444 22.1677C59.0073 21.8765 58.2793 21.4125 57.6606 20.7756C56.9691 20.0477 56.4869 19.2106 56.2139 18.2643C55.9409 17.318 55.8044 16.3444 55.8044 15.3435C55.8044 12.9778 56.4596 11.0852 57.7698 9.6658C58.3339 9.04708 59.0619 8.56484 59.9535 8.21908C60.8634 7.87332 61.837 7.70954 62.8743 7.72774C63.5476 7.69134 64.2755 7.80963 65.058 8.08259C65.8405 8.35556 66.5139 8.81051 67.078 9.44743L67.4874 7.97341H70.8176V21.458C70.8176 22.0403 70.7812 22.6135 70.7084 23.1777C70.6539 23.76 70.5538 24.315 70.4082 24.8428C70.2626 25.3887 70.0442 25.9073 69.7531 26.3987C69.4255 26.9992 69.0251 27.5087 68.552 27.9273C68.0971 28.3458 67.5875 28.6916 67.0234 28.9646C66.4593 29.2557 65.8587 29.465 65.2218 29.5924C64.5849 29.7198 63.9389 29.7835 63.2837 29.7835C62.4466 29.7835 61.6459 29.6834 60.8816 29.4832C60.1173 29.3012 59.4167 28.9919 58.7798 28.5551C58.1611 28.1366 57.6424 27.5997 57.2239 26.9446C56.8235 26.2895 56.5597 25.507 56.4323 24.5971H60.5268C60.5996 25.0338 60.8907 25.4251 61.4003 25.7709C61.9098 26.1166 62.5285 26.2895 63.2564 26.2895C64.0389 26.2895 64.6759 26.1348 65.1672 25.8255C65.6768 25.5161 66.0589 25.1066 66.3137 24.5971C66.5684 24.0876 66.7322 23.5052 66.805 22.8501C66.8778 22.195 66.9142 21.5399 66.9142 20.8847ZM63.3383 19.1651C63.9389 19.1651 64.4666 19.0559 64.9215 18.8375C65.3947 18.6191 65.7768 18.328 66.068 17.964C66.3592 17.5818 66.5775 17.1451 66.7231 16.6538C66.8687 16.1442 66.9415 15.6074 66.9415 15.0433C66.9415 13.915 66.623 12.9869 65.9861 12.259C65.3674 11.5129 64.4757 11.1307 63.311 11.1125C62.7105 11.1125 62.1737 11.2217 61.7005 11.4401C61.2456 11.6585 60.8634 11.9496 60.5541 12.3136C60.2629 12.6775 60.0445 13.1052 59.8989 13.5965C59.7534 14.0879 59.6806 14.6156 59.6806 15.1797C59.6806 15.7803 59.7534 16.3262 59.8989 16.8175C60.0627 17.2907 60.2993 17.7092 60.6087 18.0732C60.918 18.4189 61.3002 18.6919 61.7551 18.8921C62.2101 19.0741 62.7378 19.1651 63.3383 19.1651Z" fill="#B5B5D4"/>
<path d="M50.3112 20.5844C49.7652 21.3124 49.101 21.831 48.3185 22.1404C47.536 22.4497 46.6261 22.5953 45.5888 22.5771C44.2604 22.5407 43.1503 22.1676 42.2586 21.4579C41.7855 21.0576 41.4124 20.5844 41.1395 20.0385C40.8847 19.4744 40.7573 18.8102 40.7573 18.0458C40.7755 17.2633 40.9484 16.5718 41.276 15.9713C41.6217 15.3526 42.1404 14.843 42.8319 14.4427C43.4142 14.1333 44.0693 13.9149 44.7972 13.7876C45.5433 13.6602 46.3531 13.5965 47.2266 13.5965H50.1747C50.2293 12.7048 50.02 12.0406 49.5469 11.6038C49.0919 11.1489 48.4459 10.9123 47.6088 10.8941C47.3358 10.8941 47.0538 10.9123 46.7626 10.9487C46.4714 10.9851 46.1985 11.0579 45.9437 11.1671C45.7071 11.2763 45.4979 11.4309 45.3159 11.6311C45.1521 11.8131 45.0429 12.0406 44.9883 12.3135H41.0303C41.1213 11.44 41.3579 10.7121 41.74 10.1298C42.1404 9.52927 42.6408 9.04703 43.2413 8.68307C43.8419 8.31912 44.5061 8.06435 45.234 7.91877C45.9801 7.75499 46.7444 7.6731 47.5269 7.6731C47.9637 7.6731 48.4095 7.70039 48.8644 7.75499C49.3194 7.79138 49.7652 7.88237 50.202 8.02795C50.6387 8.15534 51.0482 8.33732 51.4303 8.57389C51.8307 8.79226 52.2037 9.08343 52.5495 9.44738C53.1682 10.1571 53.5504 10.976 53.696 11.9041C53.8597 12.814 53.9325 13.7057 53.9143 14.5792V22.3587H50.3931L50.3112 20.5844ZM50.1747 15.9986H47.3631C47.0902 15.9986 46.7808 16.0259 46.435 16.0805C46.0893 16.1351 45.789 16.2352 45.5342 16.3807C45.2795 16.5263 45.0611 16.7174 44.8791 16.954C44.7153 17.1905 44.6335 17.4817 44.6335 17.8275C44.6335 18.1186 44.688 18.3734 44.7972 18.5918C44.9246 18.8102 45.0793 18.9921 45.2613 19.1377C45.4615 19.2833 45.698 19.4016 45.971 19.4926C46.244 19.5654 46.5169 19.6018 46.7899 19.6018C47.3176 19.62 47.809 19.529 48.2639 19.3288C48.7371 19.1286 49.1465 18.8465 49.4923 18.4826C49.7106 18.1914 49.8744 17.8639 49.9836 17.4999C50.111 17.1178 50.1747 16.6173 50.1747 15.9986Z" fill="#B5B5D4"/>
<path fill-rule="evenodd" clip-rule="evenodd" d="M30.3049 16.277C30.1507 18.9718 29.2794 21.5825 27.7739 23.8356C26.1076 26.3294 23.7392 28.2731 20.9682 29.4209C18.1972 30.5687 15.148 30.869 12.2063 30.2839C9.26464 29.6988 6.56252 28.2544 4.44168 26.1336C2.32084 24.0128 0.876533 21.3107 0.291395 18.369C-0.293744 15.4273 0.00657068 12.3781 1.15436 9.60712C2.30215 6.83611 4.24587 4.46768 6.73971 2.80135C8.99277 1.2959 11.6034 0.4246 14.2983 0.270386V7.8777C13.1053 8.01494 11.9576 8.43416 10.9523 9.1059C9.70535 9.93907 8.7335 11.1233 8.1596 12.5088C7.58571 13.8943 7.43555 15.4189 7.72812 16.8897C8.02069 18.3606 8.74284 19.7116 9.80326 20.772C10.8637 21.8324 12.2147 22.5546 13.6856 22.8472C15.1564 23.1397 16.681 22.9896 18.0665 22.4157C19.452 21.8418 20.6362 20.8699 21.4694 19.623C22.1411 18.6177 22.5604 17.47 22.6976 16.277H30.3049Z" fill="#B5B5D4"/>
<path fill-rule="evenodd" clip-rule="evenodd" d="M22.7432 0.245605H16.5398V7.82801H22.7432L22.7432 14.0315H30.3256L30.3256 7.82801H30.326V0.245605H28.9385H22.7432Z" fill="#B5B5D4"/>
</svg>
