<svg width="31" height="31" viewBox="0 0 31 31" fill="none" xmlns="http://www.w3.org/2000/svg">
<g filter="url(#filter0_d)">
<path d="M15.4608 18.5934C20.3046 18.5934 24.2313 14.6667 24.2313 9.82295C24.2313 4.97916 20.3046 1.05249 15.4608 1.05249C10.617 1.05249 6.69037 4.97916 6.69037 9.82295C6.69037 14.6667 10.617 18.5934 15.4608 18.5934Z" fill="#FF0000" fill-opacity="0.01"/>
</g>
<path d="M15.4608 18.5934C20.3046 18.5934 24.2313 14.6667 24.2313 9.82295C24.2313 4.97916 20.3046 1.05249 15.4608 1.05249C10.617 1.05249 6.69037 4.97916 6.69037 9.82295C6.69037 14.6667 10.617 18.5934 15.4608 18.5934Z" fill="#6D72F6" stroke="#6D72F6" stroke-width="1.8" stroke-miterlimit="10" stroke-linecap="round"/>
<path d="M15.2529 6.18579V10.571H19.6381" stroke="url(#paint0_linear)" stroke-width="1.8" stroke-miterlimit="10" stroke-linecap="round"/>
<defs>
<filter id="filter0_d" x="0.690369" y="1.05249" width="29.5409" height="29.5409" filterUnits="userSpaceOnUse" color-interpolation-filters="sRGB">
<feFlood flood-opacity="0" result="BackgroundImageFix"/>
<feColorMatrix in="SourceAlpha" type="matrix" values="0 0 0 0 0 0 0 0 0 0 0 0 0 0 0 0 0 0 127 0"/>
<feOffset dy="6"/>
<feGaussianBlur stdDeviation="3"/>
<feColorMatrix type="matrix" values="0 0 0 0 0.428267 0 0 0 0 0.446907 0 0 0 0 0.964164 0 0 0 0.26 0"/>
<feBlend mode="normal" in2="BackgroundImageFix" result="effect1_dropShadow"/>
<feBlend mode="normal" in="SourceGraphic" in2="effect1_dropShadow" result="shape"/>
</filter>
<linearGradient id="paint0_linear" x1="17.4455" y1="6.18579" x2="17.4455" y2="10.571" gradientUnits="userSpaceOnUse">
<stop stop-color="white" stop-opacity="0.73"/>
<stop offset="1" stop-color="white"/>
</linearGradient>
</defs>
</svg>
