<svg width="115" height="26" viewBox="0 0 115 26" fill="none" xmlns="http://www.w3.org/2000/svg">
<path d="M55.8603 24.0109H53.8322V10.8618H55.7964V12.5617H55.8341C56.1276 11.9848 56.5794 11.5035 57.1366 11.1742C57.6938 10.8449 58.3333 10.6812 58.9802 10.7022C61.5075 10.7022 63.1411 12.7041 63.1411 15.8019C63.1411 18.8997 61.5222 20.9106 59.0178 20.9106C58.3834 20.9329 57.7555 20.7765 57.2057 20.4593C56.6558 20.1421 56.2061 19.6769 55.9077 19.1166H55.8603V24.0109ZM58.4433 12.4119C56.8931 12.4119 55.8513 13.7747 55.8513 15.8027C55.8513 17.8628 56.8686 19.1936 58.4433 19.1936C60.0531 19.1936 61.0541 17.8947 61.0541 15.8027C61.0541 13.7108 60.054 12.4119 58.4441 12.4119H58.4433ZM44.5363 24.0109H42.5074V10.8618H44.4716V12.5617H44.5093C44.8028 11.9851 45.2546 11.5041 45.8116 11.1749C46.3686 10.8457 47.0079 10.6821 47.6546 10.703C50.1819 10.703 51.8155 12.7049 51.8155 15.8027C51.8155 18.9006 50.1966 20.9115 47.6922 20.9115C47.0578 20.9337 46.4299 20.7773 45.8801 20.4601C45.3302 20.1429 44.8805 19.6777 44.5821 19.1174H44.5363V24.0109ZM47.1193 12.4119C45.5692 12.4119 44.5273 13.7747 44.5273 15.8027C44.5273 17.8628 45.5446 19.1936 47.1193 19.1936C48.7292 19.1936 49.7301 17.8947 49.7301 15.8027C49.7301 13.7108 48.7292 12.4119 47.1193 12.4119ZM6.73248 25.9291C5.02603 25.9291 3.70425 24.0352 2.73849 22.6553C1.4823 20.7649 0.629709 18.6357 0.234054 16.4008C-0.268 14.0923 0.0431044 11.6812 1.1147 9.57577C1.64629 8.62059 2.41643 7.81955 3.34996 7.25079C4.28349 6.68204 5.34852 6.36501 6.44112 6.33065H6.51478C7.41236 6.38568 8.2911 6.6121 9.10351 6.99768H9.11169H9.1166H9.12151C9.62837 7.2483 10.1756 7.40708 10.7379 7.46664C11.2712 7.40185 11.79 7.24919 12.2733 7.01486H12.2815H12.2889H12.293C13.2328 6.57896 14.2455 6.32195 15.2795 6.25699C15.399 6.25699 15.5389 6.26435 15.6952 6.27827C16.6324 6.30852 17.5496 6.55648 18.3744 7.00252C19.1992 7.44857 19.9088 8.08045 20.4471 8.84817C19.6026 9.37107 18.9031 10.0978 18.4127 10.9615C17.9223 11.8253 17.6569 12.7984 17.6407 13.7916C17.6322 14.5567 17.7823 15.3153 18.0815 16.0196C18.3807 16.7239 18.8225 17.3586 19.379 17.8838C19.883 18.3695 20.4723 18.758 21.1174 19.0296V19.0361C20.7058 20.3464 20.0961 21.5859 19.3095 22.7118C18.1637 24.4354 17.0686 25.8644 15.3556 25.8898H15.259C14.5971 25.8762 13.9466 25.7146 13.3553 25.4167H13.3504C12.6427 25.0707 11.8669 24.8868 11.0792 24.8782C10.2568 24.8817 9.44566 25.0699 8.70574 25.429H8.70165H8.69347H8.68937C8.10476 25.716 7.46923 25.8849 6.81924 25.9258H6.73248V25.9291ZM74.3218 20.9671C73.0158 21.0199 71.7288 20.6398 70.661 19.886C70.2093 19.5412 69.84 19.1003 69.5797 18.5953C69.3194 18.0902 69.1746 17.5336 69.1558 16.9658H71.2314C71.3804 18.2974 72.6817 19.1919 74.4716 19.1919C76.1748 19.1919 77.4106 18.3113 77.4106 17.0975C77.4106 16.0466 76.6634 15.414 74.9128 14.9843L73.1564 14.5612C70.67 13.9613 69.5119 12.7999 69.5119 10.9076C69.5119 8.58491 71.54 6.96358 74.443 6.96358C77.3034 6.96358 79.2718 8.5489 79.3356 10.9076H77.2895C77.1684 9.5695 76.0668 8.73878 74.4152 8.73878C72.7946 8.73878 71.6636 9.57277 71.6636 10.7677C71.6636 11.7228 72.3764 12.2884 74.1246 12.7213L75.6174 13.0872C76.7237 13.278 77.761 13.7542 78.6268 14.4687C78.9398 14.7766 79.184 15.1473 79.3434 15.5564C79.5028 15.9655 79.5738 16.4037 79.5517 16.8422C79.5517 19.3883 77.5473 20.9679 74.321 20.9679L74.3218 20.9671ZM109.992 20.9295C107.118 20.9295 105.333 18.9824 105.333 15.8486C105.276 14.4906 105.717 13.1584 106.574 12.1034C106.993 11.6377 107.508 11.2692 108.084 11.0238C108.659 10.7783 109.282 10.6619 109.908 10.6826C110.515 10.6593 111.12 10.7672 111.681 10.9988C112.243 11.2304 112.748 11.5804 113.162 12.0248C113.992 13.0315 114.418 14.3104 114.359 15.6137V16.3094H107.38V16.4313C107.342 16.7989 107.383 17.1704 107.5 17.5208C107.617 17.8713 107.808 18.1926 108.06 18.4631C108.312 18.7336 108.618 18.947 108.96 19.0889C109.301 19.2309 109.668 19.2981 110.038 19.286C110.524 19.3267 111.01 19.2075 111.422 18.9464C111.834 18.6853 112.15 18.2968 112.32 17.8399H114.246C114.173 18.283 114.013 18.7073 113.776 19.0885C113.538 19.4697 113.228 19.8002 112.862 20.0611C112.023 20.6498 111.016 20.9544 109.991 20.9303L109.992 20.9295ZM109.91 12.317C109.236 12.3284 108.594 12.605 108.123 13.0867C107.652 13.5684 107.39 14.2164 107.393 14.8902H112.334C112.354 14.5593 112.307 14.2278 112.194 13.9161C112.081 13.6043 111.906 13.3191 111.678 13.078C111.451 12.8369 111.176 12.6451 110.871 12.5145C110.567 12.3839 110.238 12.3172 109.907 12.3186L109.91 12.317ZM92.2924 20.9303C91.6606 20.9545 91.0309 20.8449 90.4445 20.6088C89.858 20.3727 89.3281 20.0154 88.8893 19.5602C88.0007 18.5154 87.542 17.1721 87.606 15.8019C87.5427 14.434 88.0024 13.0932 88.8917 12.0518C89.8061 11.1745 91.0243 10.6846 92.2915 10.6846C93.5588 10.6846 94.777 11.1745 95.6914 12.0518C96.5813 13.0929 97.0413 14.4338 96.9779 15.8019C97.0417 17.172 96.583 18.5152 95.6946 19.5602C95.2559 20.0151 94.726 20.3723 94.1398 20.6084C93.5535 20.8445 92.9239 20.9542 92.2924 20.9303ZM92.2924 12.3563C90.8486 12.3563 89.6734 13.9056 89.6734 15.8101C89.6734 17.7146 90.8478 19.2631 92.2924 19.2631C93.7369 19.2631 94.9114 17.7138 94.9114 15.8101C94.9114 13.9064 93.7328 12.3563 92.2915 12.3563H92.2924ZM85.0262 20.8083C83.026 20.8083 82.2435 20.0603 82.2435 18.141V12.4709H80.808V10.8618H82.2452V8.52435H84.2831V10.8626H86.1614V12.4709H84.2831V17.9176C84.2831 18.7753 84.6539 19.1575 85.4854 19.1575C85.7086 19.1588 85.9316 19.1429 86.1524 19.1101V20.7167C85.7808 20.7849 85.4032 20.8156 85.0254 20.8083H85.0262ZM30.9273 20.7437H28.7412L33.6347 7.19029H35.9075L40.8009 20.742H38.5748L37.3348 17.0787H32.1696L30.9297 20.742L30.9273 20.7437ZM34.7232 9.44264L32.7041 15.3878H36.7963L34.7805 9.44264H34.7232ZM101.033 20.7412H99.0044V10.8618H100.939V12.5437H100.987C101.111 12.0114 101.415 11.5381 101.847 11.203C102.279 10.8679 102.814 10.6914 103.36 10.703C103.594 10.7062 103.826 10.7314 104.055 10.7783V12.6657C103.759 12.5806 103.452 12.5425 103.145 12.5527C102.85 12.54 102.556 12.5913 102.283 12.7033C102.01 12.8153 101.765 12.9852 101.564 13.2013C101.363 13.4174 101.211 13.6746 101.119 13.955C101.027 14.2354 100.998 14.5324 101.032 14.8255V20.742L101.033 20.7412ZM10.7887 5.98608C10.704 5.98706 10.6193 5.98378 10.535 5.97626C10.4403 4.5144 10.9302 3.07481 11.8968 1.97408C12.8761 0.859096 14.2397 0.154212 15.7157 0C15.8351 1.5058 15.3584 2.99827 14.3882 4.15605C13.9504 4.69681 13.4036 5.13927 12.7834 5.45459C12.1632 5.7699 11.4835 5.951 10.7887 5.98608Z" fill="#6D72F6"/>
</svg>
