<svg width="209" height="34" viewBox="0 0 209 34" fill="none" xmlns="http://www.w3.org/2000/svg">
<path d="M0 1.55117C0 0.946559 0.723892 0.635964 1.16206 1.05257L10.455 9.8882C11.1038 10.5051 11.4711 11.3612 11.4711 12.2565V31.9545C11.4711 32.7108 10.5651 33.0988 10.0177 32.5769L1.22614 24.1947C0.443103 23.4482 0 22.4135 0 21.3316V1.55117Z" fill="url(#paint0_linear_1710_20936)"/>
<path d="M4.3009 1.40616C3.84623 0.979481 4.14818 0.216492 4.7717 0.216492H20.6291C21.9589 0.216492 23.037 1.29458 23.037 2.62447V20.3549C23.037 21.7798 21.8819 22.9349 20.4571 22.9349H14.6358C13.8759 22.9349 13.2598 22.3188 13.2598 21.5589V11.303C13.2598 10.3527 12.8668 9.44484 12.1739 8.79458L4.3009 1.40616Z" fill="url(#paint1_linear_1710_20936)"/>
<path d="M34.2539 25.5499V5.37H46.5861V9.18176H38.0657V13.5541H44.9044V17.3658H38.0657V25.5499H34.2539Z" fill="#1C1C57"/>
<path d="M48.9586 8.31291V4.94958H52.7703V8.31291H48.9586ZM48.9586 25.5499V10.415H52.7703V25.5499H48.9586Z" fill="#1C1C57"/>
<path d="M66.8479 25.5499V18.4029C66.8479 18.0572 66.8292 17.6181 66.7919 17.0856C66.7545 16.5437 66.6377 16.0018 66.4415 15.46C66.2453 14.9181 65.923 14.465 65.4745 14.1006C65.0354 13.7363 64.4095 13.5541 63.5967 13.5541C63.2697 13.5541 62.9194 13.6055 62.5457 13.7082C62.172 13.811 61.8216 14.0119 61.4946 14.3108C61.1676 14.6004 60.8967 15.0302 60.6818 15.6001C60.4763 16.17 60.3735 16.9267 60.3735 17.8703L58.1874 16.8333C58.1874 15.6375 58.4303 14.5164 58.9161 13.47C59.4019 12.4236 60.1306 11.5781 61.1022 10.9335C62.0832 10.2889 63.3164 9.96654 64.8019 9.96654C65.9884 9.96654 66.9553 10.1674 67.7028 10.5691C68.4502 10.9709 69.0294 11.48 69.4405 12.0966C69.8609 12.7133 70.1598 13.3579 70.3373 14.0306C70.5149 14.6939 70.6223 15.3011 70.6597 15.8524C70.697 16.4036 70.7157 16.8053 70.7157 17.0575V25.5499H66.8479ZM56.5057 25.5499V10.415H59.897V15.4319H60.3735V25.5499H56.5057Z" fill="#1C1C57"/>
<path d="M78.1183 25.9703C77.0346 25.9703 76.1143 25.7648 75.3576 25.3537C74.6102 24.9333 74.0403 24.3774 73.6479 23.6861C73.2649 22.9854 73.0733 22.2146 73.0733 21.3738C73.0733 20.6731 73.1808 20.0331 73.3956 19.4539C73.6105 18.8747 73.9562 18.3655 74.4327 17.9264C74.9185 17.478 75.5678 17.1043 76.3806 16.8053C76.9411 16.5998 77.6091 16.4176 78.3846 16.2588C79.16 16.0999 80.0382 15.9504 81.0192 15.8103C82.0001 15.6608 83.0792 15.4973 84.2564 15.3198L82.883 16.0766C82.883 15.1797 82.6681 14.521 82.2384 14.1006C81.8086 13.6802 81.0892 13.47 80.0802 13.47C79.5197 13.47 78.9358 13.6055 78.3285 13.8764C77.7213 14.1473 77.2962 14.6285 77.0533 15.3198L73.6059 14.2267C73.9889 12.9748 74.7083 11.9565 75.764 11.1717C76.8197 10.387 78.2585 9.99457 80.0802 9.99457C81.4162 9.99457 82.6027 10.2001 83.6398 10.6112C84.6768 11.0222 85.4616 11.7323 85.9941 12.7413C86.2931 13.3018 86.4706 13.8624 86.5266 14.4229C86.5827 14.9835 86.6107 15.6094 86.6107 16.3008V25.5499H83.2754V22.4389L83.7519 23.0835C83.0138 24.1018 82.215 24.8399 81.3555 25.2977C80.5053 25.7461 79.4263 25.9703 78.1183 25.9703ZM78.9311 22.9714C79.6318 22.9714 80.2204 22.8499 80.6969 22.607C81.1827 22.3548 81.5657 22.0698 81.846 21.7522C82.1356 21.4345 82.3318 21.1683 82.4346 20.9534C82.6308 20.5423 82.7429 20.0658 82.7709 19.524C82.8083 18.9728 82.827 18.515 82.827 18.1506L83.9481 18.4309C82.8176 18.6177 81.9021 18.7766 81.2014 18.9074C80.5007 19.0288 79.9354 19.1409 79.5057 19.2437C79.0759 19.3465 78.6976 19.4586 78.3706 19.58C77.9969 19.7295 77.6932 19.893 77.4597 20.0705C77.2354 20.2387 77.0673 20.4255 76.9552 20.6311C76.8524 20.8366 76.801 21.0655 76.801 21.3177C76.801 21.6634 76.8851 21.9624 77.0533 22.2146C77.2308 22.4575 77.4783 22.6444 77.796 22.7752C78.1136 22.906 78.492 22.9714 78.9311 22.9714Z" fill="#1C1C57"/>
<path d="M100.131 25.5499V18.4029C100.131 18.0572 100.112 17.6181 100.075 17.0856C100.037 16.5437 99.9206 16.0018 99.7244 15.46C99.5282 14.9181 99.2059 14.465 98.7574 14.1006C98.3183 13.7363 97.6924 13.5541 96.8796 13.5541C96.5526 13.5541 96.2022 13.6055 95.8285 13.7082C95.4548 13.811 95.1045 14.0119 94.7775 14.3108C94.4505 14.6004 94.1796 15.0302 93.9647 15.6001C93.7591 16.17 93.6564 16.9267 93.6564 17.8703L91.4702 16.8333C91.4702 15.6375 91.7131 14.5164 92.1989 13.47C92.6847 12.4236 93.4135 11.5781 94.3851 10.9335C95.3661 10.2889 96.5993 9.96654 98.0847 9.96654C99.2713 9.96654 100.238 10.1674 100.986 10.5691C101.733 10.9709 102.312 11.48 102.723 12.0966C103.144 12.7133 103.443 13.3579 103.62 14.0306C103.798 14.6939 103.905 15.3011 103.943 15.8524C103.98 16.4036 103.999 16.8053 103.999 17.0575V25.5499H100.131ZM89.7886 25.5499V10.415H93.1799V15.4319H93.6564V25.5499H89.7886Z" fill="#1C1C57"/>
<path d="M113.594 25.9703C112.024 25.9703 110.679 25.62 109.558 24.9193C108.437 24.2186 107.577 23.2657 106.979 22.0605C106.381 20.8553 106.082 19.4959 106.082 17.9825C106.082 16.4503 106.391 15.0816 107.007 13.8764C107.633 12.6712 108.512 11.7229 109.642 11.0316C110.772 10.3402 112.108 9.99457 113.65 9.99457C115.434 9.99457 116.929 10.4477 118.134 11.3539C119.349 12.2508 120.124 13.4793 120.461 15.0395L116.649 16.0485C116.425 15.2638 116.032 14.6518 115.472 14.2127C114.921 13.7736 114.295 13.5541 113.594 13.5541C112.79 13.5541 112.132 13.7503 111.618 14.1427C111.104 14.5257 110.726 15.0536 110.483 15.7262C110.24 16.3895 110.118 17.1416 110.118 17.9825C110.118 19.2998 110.408 20.3695 110.987 21.1916C111.576 22.0044 112.445 22.4108 113.594 22.4108C114.453 22.4108 115.107 22.2146 115.556 21.8222C116.004 21.4299 116.341 20.8693 116.565 20.1406L120.461 20.9534C120.031 22.5603 119.218 23.7982 118.022 24.6671C116.826 25.5359 115.35 25.9703 113.594 25.9703Z" fill="#1C1C57"/>
<path d="M129.45 25.9703C127.899 25.9703 126.531 25.6387 125.344 24.9754C124.167 24.3027 123.242 23.3825 122.569 22.2146C121.906 21.0375 121.574 19.6921 121.574 18.1786C121.574 16.525 121.901 15.0863 122.555 13.8624C123.209 12.6385 124.111 11.6902 125.26 11.0176C126.409 10.3356 127.731 9.99457 129.226 9.99457C130.814 9.99457 132.164 10.3683 133.276 11.1157C134.388 11.8631 135.21 12.9141 135.742 14.2688C136.275 15.6235 136.462 17.2164 136.303 19.0475H132.533V17.6461C132.533 16.1046 132.286 14.9975 131.79 14.3248C131.305 13.6428 130.506 13.3018 129.394 13.3018C128.095 13.3018 127.138 13.6989 126.521 14.493C125.914 15.2778 125.61 16.4409 125.61 17.9825C125.61 19.3932 125.914 20.4863 126.521 21.2617C127.138 22.0278 128.039 22.4108 129.226 22.4108C129.973 22.4108 130.613 22.2473 131.146 21.9203C131.678 21.5934 132.085 21.1216 132.365 20.5049L136.177 21.598C135.607 22.9807 134.705 24.0551 133.472 24.8212C132.248 25.5873 130.908 25.9703 129.45 25.9703ZM124.433 19.0475V16.2167H134.467V19.0475H124.433Z" fill="#1C1C57"/>
<path d="M139.31 25.5499V5.37H143.121V21.9904H151.81V25.5499H139.31Z" fill="#1C1C57"/>
<path d="M157.959 25.9703C156.875 25.9703 155.955 25.7648 155.198 25.3537C154.451 24.9333 153.881 24.3774 153.488 23.6861C153.105 22.9854 152.914 22.2146 152.914 21.3738C152.914 20.6731 153.021 20.0331 153.236 19.4539C153.451 18.8747 153.797 18.3655 154.273 17.9264C154.759 17.478 155.408 17.1043 156.221 16.8053C156.782 16.5998 157.45 16.4176 158.225 16.2588C159.001 16.0999 159.879 15.9504 160.86 15.8103C161.841 15.6608 162.92 15.4973 164.097 15.3198L162.724 16.0766C162.724 15.1797 162.509 14.521 162.079 14.1006C161.649 13.6802 160.93 13.47 159.921 13.47C159.36 13.47 158.776 13.6055 158.169 13.8764C157.562 14.1473 157.137 14.6285 156.894 15.3198L153.446 14.2267C153.829 12.9748 154.549 11.9565 155.605 11.1717C156.66 10.387 158.099 9.99457 159.921 9.99457C161.257 9.99457 162.443 10.2001 163.48 10.6112C164.517 11.0222 165.302 11.7323 165.835 12.7413C166.134 13.3018 166.311 13.8624 166.367 14.4229C166.423 14.9835 166.451 15.6094 166.451 16.3008V25.5499H163.116V22.4389L163.592 23.0835C162.854 24.1018 162.056 24.8399 161.196 25.2977C160.346 25.7461 159.267 25.9703 157.959 25.9703ZM158.772 22.9714C159.472 22.9714 160.061 22.8499 160.537 22.607C161.023 22.3548 161.406 22.0698 161.687 21.7522C161.976 21.4345 162.172 21.1683 162.275 20.9534C162.471 20.5423 162.583 20.0658 162.611 19.524C162.649 18.9728 162.668 18.515 162.668 18.1506L163.789 18.4309C162.658 18.6177 161.743 18.7766 161.042 18.9074C160.341 19.0288 159.776 19.1409 159.346 19.2437C158.916 19.3465 158.538 19.4586 158.211 19.58C157.837 19.7295 157.534 19.893 157.3 20.0705C157.076 20.2387 156.908 20.4255 156.796 20.6311C156.693 20.8366 156.642 21.0655 156.642 21.3177C156.642 21.6634 156.726 21.9624 156.894 22.2146C157.071 22.4575 157.319 22.6444 157.637 22.7752C157.954 22.906 158.333 22.9714 158.772 22.9714Z" fill="#1C1C57"/>
<path d="M177.084 25.9703C175.58 25.9703 174.324 25.62 173.315 24.9193C172.306 24.2186 171.544 23.2657 171.03 22.0605C170.526 20.8553 170.274 19.4959 170.274 17.9825C170.274 16.469 170.526 15.1096 171.03 13.9044C171.535 12.6992 172.278 11.7463 173.259 11.0456C174.24 10.3449 175.45 9.99457 176.888 9.99457C178.336 9.99457 179.598 10.3402 180.672 11.0316C181.746 11.7229 182.578 12.6712 183.166 13.8764C183.764 15.0722 184.063 16.4409 184.063 17.9825C184.063 19.4959 183.769 20.8553 183.18 22.0605C182.601 23.2657 181.788 24.2186 180.742 24.9193C179.696 25.62 178.476 25.9703 177.084 25.9703ZM169.629 25.5499V5.37H173.469V15.1797H172.992V25.5499H169.629ZM176.468 22.579C177.29 22.579 177.963 22.3735 178.486 21.9624C179.009 21.5513 179.397 21.0001 179.649 20.3088C179.901 19.6081 180.027 18.8326 180.027 17.9825C180.027 17.1416 179.897 16.3755 179.635 15.6842C179.373 14.9835 178.967 14.4276 178.416 14.0165C177.874 13.5961 177.178 13.3859 176.328 13.3859C175.534 13.3859 174.889 13.5774 174.394 13.9605C173.908 14.3435 173.553 14.8807 173.329 15.5721C173.105 16.2634 172.992 17.0669 172.992 17.9825C172.992 18.898 173.105 19.7015 173.329 20.3928C173.553 21.0842 173.917 21.6214 174.422 22.0044C174.936 22.3875 175.618 22.579 176.468 22.579Z" fill="#1C1C57"/>
<path d="M190.201 25.5499L196.983 15.3479L190.397 5.37H195.077L199.366 12.0966L203.598 5.37H208.306L201.72 15.3479L208.475 25.5499H203.794L199.366 18.5991L194.909 25.5499H190.201Z" fill="#1C1C57"/>
<defs>
<linearGradient id="paint0_linear_1710_20936" x1="5.73557" y1="-0.0523071" x2="5.73557" y2="26.4539" gradientUnits="userSpaceOnUse">
<stop stop-color="#B7BAFF"/>
<stop offset="1" stop-color="#767BFE"/>
</linearGradient>
<linearGradient id="paint1_linear_1710_20936" x1="13.0351" y1="0.216492" x2="18.2445" y2="22.0401" gradientUnits="userSpaceOnUse">
<stop stop-color="#888CFF"/>
<stop offset="1" stop-color="#6065EC"/>
</linearGradient>
</defs>
</svg>
