<svg width="29" height="34" viewBox="0 0 29 34" fill="none" xmlns="http://www.w3.org/2000/svg">
<g filter="url(#filter0_bd)">
<path fill-rule="evenodd" clip-rule="evenodd" d="M21.9158 9.63086C21.9205 9.74861 21.8583 12.1478 21.81 12.2554H19.6283C19.5897 12.1554 19.5677 9.83534 19.563 9.34803L19.5622 9.26257C19.5622 6.35158 17.1942 3.99176 14.2732 3.99176C11.3522 3.99176 8.98422 6.35158 8.98422 9.26257C9.00423 9.3759 9.00425 12.1421 8.98424 12.2554H6.74964C6.72963 12.1421 6.72961 9.3759 6.74962 9.26257C6.9194 5.21161 10.2642 2.01459 14.3327 2.01459C18.4012 2.01459 21.746 5.21161 21.9158 9.26257V9.63086ZM10.3706 18.0235C9.62959 18.0235 9.02889 17.4052 9.02889 16.6425C9.02889 15.8799 9.62959 15.2616 10.3706 15.2616C11.1116 15.2616 11.7123 15.8799 11.7123 16.6425C11.7123 17.4052 11.1116 18.0235 10.3706 18.0235ZM17.8168 16.6428C17.8168 17.4054 18.4175 18.0237 19.1585 18.0237C19.8995 18.0237 20.5002 17.4054 20.5002 16.6428C20.5002 15.8801 19.8995 15.2618 19.1585 15.2618C18.4175 15.2618 17.8168 15.8801 17.8168 16.6428Z" fill="#FF0000" fill-opacity="0.01"/>
</g>
<path fill-rule="evenodd" clip-rule="evenodd" d="M21.9158 9.63086C21.9205 9.74861 21.8583 12.1478 21.81 12.2554H19.6283C19.5897 12.1554 19.5677 9.83534 19.563 9.34803L19.5622 9.26257C19.5622 6.35158 17.1942 3.99176 14.2732 3.99176C11.3522 3.99176 8.98422 6.35158 8.98422 9.26257C9.00423 9.3759 9.00425 12.1421 8.98424 12.2554H6.74964C6.72963 12.1421 6.72961 9.3759 6.74962 9.26257C6.9194 5.21161 10.2642 2.01459 14.3327 2.01459C18.4012 2.01459 21.746 5.21161 21.9158 9.26257V9.63086ZM10.3706 18.0235C9.62959 18.0235 9.02889 17.4052 9.02889 16.6425C9.02889 15.8799 9.62959 15.2616 10.3706 15.2616C11.1116 15.2616 11.7123 15.8799 11.7123 16.6425C11.7123 17.4052 11.1116 18.0235 10.3706 18.0235ZM17.8168 16.6428C17.8168 17.4054 18.4175 18.0237 19.1585 18.0237C19.8995 18.0237 20.5002 17.4054 20.5002 16.6428C20.5002 15.8801 19.8995 15.2618 19.1585 15.2618C18.4175 15.2618 17.8168 15.8801 17.8168 16.6428Z" fill="#1C1C57"/>
<mask id="path-3-outside-1" maskUnits="userSpaceOnUse" x="0.158203" y="9.19397" width="29" height="25" fill="black">
<rect fill="white" x="0.158203" y="9.19397" width="29" height="25"/>
<path fill-rule="evenodd" clip-rule="evenodd" d="M28.3526 24.3348L27.1854 14.9306C26.4743 11.5749 24.4617 10.194 22.5431 10.194L7.12701 10.194C5.18155 10.194 3.10192 11.4782 2.49815 14.9306L1.31746 24.3348C0.351439 31.2396 3.90693 32.9657 8.5492 32.9657H21.1343C25.7632 32.9657 29.2113 30.4662 28.3526 24.3348ZM10.4146 18.0099C9.67362 18.0099 9.07292 17.3916 9.07292 16.629C9.07292 15.8663 9.67362 15.248 10.4146 15.248C11.1556 15.248 11.7563 15.8663 11.7563 16.629C11.7563 17.3916 11.1556 18.0099 10.4146 18.0099ZM17.8609 16.6292C17.8609 17.3919 18.4616 18.0101 19.2026 18.0101C19.9436 18.0101 20.5443 17.3919 20.5443 16.6292C20.5443 15.8665 19.9436 15.2483 19.2026 15.2483C18.4616 15.2483 17.8609 15.8665 17.8609 16.6292Z"/>
</mask>
<path fill-rule="evenodd" clip-rule="evenodd" d="M28.3526 24.3348L27.1854 14.9306C26.4743 11.5749 24.4617 10.194 22.5431 10.194L7.12701 10.194C5.18155 10.194 3.10192 11.4782 2.49815 14.9306L1.31746 24.3348C0.351439 31.2396 3.90693 32.9657 8.5492 32.9657H21.1343C25.7632 32.9657 29.2113 30.4662 28.3526 24.3348ZM10.4146 18.0099C9.67362 18.0099 9.07292 17.3916 9.07292 16.629C9.07292 15.8663 9.67362 15.248 10.4146 15.248C11.1556 15.248 11.7563 15.8663 11.7563 16.629C11.7563 17.3916 11.1556 18.0099 10.4146 18.0099ZM17.8609 16.6292C17.8609 17.3919 18.4616 18.0101 19.2026 18.0101C19.9436 18.0101 20.5443 17.3919 20.5443 16.6292C20.5443 15.8665 19.9436 15.2483 19.2026 15.2483C18.4616 15.2483 17.8609 15.8665 17.8609 16.6292Z" fill="#6D72F6"/>
<path d="M27.1854 14.9306L27.5721 14.8826C27.5707 14.8716 27.5689 14.8607 27.5666 14.8498L27.1854 14.9306ZM28.3526 24.3348L27.9659 24.3828L27.9667 24.3889L28.3526 24.3348ZM2.49815 14.9306L2.11431 14.8635C2.11323 14.8697 2.1123 14.8758 2.11152 14.8821L2.49815 14.9306ZM1.31746 24.3348L1.70341 24.3888L1.7041 24.3834L1.31746 24.3348ZM26.7987 14.9786L27.9659 24.3828L28.7393 24.2868L27.5721 14.8826L26.7987 14.9786ZM22.5431 10.5836C24.2376 10.5836 26.1222 11.7934 26.8042 15.0114L27.5666 14.8498C26.8263 11.3564 24.6859 9.8043 22.5431 9.8043V10.5836ZM7.12701 10.5836L22.5431 10.5836V9.8043L7.12701 9.8043V10.5836ZM2.882 14.9977C3.17211 13.3389 3.80901 12.2404 4.56972 11.5577C5.33031 10.875 6.24129 10.5836 7.12701 10.5836V9.8043C6.06726 9.8043 4.9657 10.1551 4.04917 10.9777C3.13275 11.8001 2.42796 13.07 2.11431 14.8635L2.882 14.9977ZM1.7041 24.3834L2.88479 14.9791L2.11152 14.8821L0.930824 24.2863L1.7041 24.3834ZM8.5492 32.5761C6.25764 32.5761 4.33719 32.1462 3.1001 30.9585C1.87959 29.7866 1.22889 27.7803 1.70337 24.3888L0.931547 24.2808C0.440011 27.7941 1.08405 30.1032 2.56034 31.5206C4.02006 32.9222 6.1985 33.3554 8.5492 33.3554V32.5761ZM21.1343 32.5761H8.5492V33.3554H21.1343V32.5761ZM27.9667 24.3889C28.3852 27.3772 27.7458 29.4008 26.52 30.6799C25.286 31.9676 23.3868 32.5761 21.1343 32.5761V33.3554C23.5107 33.3554 25.65 32.7142 27.0826 31.2192C28.5234 29.7157 29.1787 27.4238 28.7385 24.2808L27.9667 24.3889ZM8.68325 16.629C8.68325 17.5962 9.44789 18.3996 10.4146 18.3996V17.6202C9.89934 17.6202 9.46259 17.1871 9.46259 16.629H8.68325ZM10.4146 14.8583C9.44789 14.8583 8.68325 15.6617 8.68325 16.629H9.46259C9.46259 16.0708 9.89934 15.6377 10.4146 15.6377V14.8583ZM12.146 16.629C12.146 15.6617 11.3813 14.8583 10.4146 14.8583V15.6377C10.9299 15.6377 11.3666 16.0708 11.3666 16.629H12.146ZM10.4146 18.3996C11.3813 18.3996 12.146 17.5962 12.146 16.629H11.3666C11.3666 17.1871 10.9299 17.6202 10.4146 17.6202V18.3996ZM19.2026 17.6205C18.6873 17.6205 18.2505 17.1873 18.2505 16.6292H17.4712C17.4712 17.5964 18.2358 18.3998 19.2026 18.3998V17.6205ZM20.1546 16.6292C20.1546 17.1873 19.7178 17.6205 19.2026 17.6205V18.3998C20.1693 18.3998 20.9339 17.5964 20.9339 16.6292H20.1546ZM19.2026 15.6379C19.7178 15.6379 20.1546 16.0711 20.1546 16.6292H20.9339C20.9339 15.662 20.1693 14.8586 19.2026 14.8586V15.6379ZM18.2505 16.6292C18.2505 16.0711 18.6873 15.6379 19.2026 15.6379V14.8586C18.2358 14.8586 17.4712 15.662 17.4712 16.6292H18.2505Z" fill="url(#paint0_linear)" mask="url(#path-3-outside-1)"/>
<g filter="url(#filter1_d)">
<circle cx="10.4358" cy="16.5879" r="1.43581" fill="#FF0000" fill-opacity="0.01"/>
</g>
<g filter="url(#filter2_d)">
<circle cx="19.2124" cy="16.5879" r="1.43581" fill="#FF0000" fill-opacity="0.01"/>
</g>
<circle cx="10.4329" cy="16.5879" r="1.43581" fill="white"/>
<circle cx="19.2095" cy="16.5879" r="1.43581" fill="white"/>
<defs>
<filter id="filter0_bd" x="0.889536" y="-3.8305" width="26.8716" height="27.6993" filterUnits="userSpaceOnUse" color-interpolation-filters="sRGB">
<feFlood flood-opacity="0" result="BackgroundImageFix"/>
<feGaussianBlur in="BackgroundImage" stdDeviation="2.92254"/>
<feComposite in2="SourceAlpha" operator="in" result="effect1_backgroundBlur"/>
<feColorMatrix in="SourceAlpha" type="matrix" values="0 0 0 0 0 0 0 0 0 0 0 0 0 0 0 0 0 0 127 0"/>
<feOffset dx="1.94836" dy="1.94836"/>
<feGaussianBlur stdDeviation="1.94836"/>
<feColorMatrix type="matrix" values="0 0 0 0 0.15375 0 0 0 0 0.522433 0 0 0 0 0.9 0 0 0 0.5 0"/>
<feBlend mode="normal" in2="effect1_backgroundBlur" result="effect2_dropShadow"/>
<feBlend mode="normal" in="SourceGraphic" in2="effect2_dropShadow" result="shape"/>
</filter>
<filter id="filter1_d" x="6" y="14.1521" width="8.87162" height="8.87162" filterUnits="userSpaceOnUse" color-interpolation-filters="sRGB">
<feFlood flood-opacity="0" result="BackgroundImageFix"/>
<feColorMatrix in="SourceAlpha" type="matrix" values="0 0 0 0 0 0 0 0 0 0 0 0 0 0 0 0 0 0 127 0"/>
<feOffset dy="2"/>
<feGaussianBlur stdDeviation="1.5"/>
<feColorMatrix type="matrix" values="0 0 0 0 0 0 0 0 0 0 0 0 0 0 0 0 0 0 0.35 0"/>
<feBlend mode="normal" in2="BackgroundImageFix" result="effect1_dropShadow"/>
<feBlend mode="normal" in="SourceGraphic" in2="effect1_dropShadow" result="shape"/>
</filter>
<filter id="filter2_d" x="14.7766" y="14.1521" width="8.87162" height="8.87162" filterUnits="userSpaceOnUse" color-interpolation-filters="sRGB">
<feFlood flood-opacity="0" result="BackgroundImageFix"/>
<feColorMatrix in="SourceAlpha" type="matrix" values="0 0 0 0 0 0 0 0 0 0 0 0 0 0 0 0 0 0 127 0"/>
<feOffset dy="2"/>
<feGaussianBlur stdDeviation="1.5"/>
<feColorMatrix type="matrix" values="0 0 0 0 0 0 0 0 0 0 0 0 0 0 0 0 0 0 0.35 0"/>
<feBlend mode="normal" in2="BackgroundImageFix" result="effect1_dropShadow"/>
<feBlend mode="normal" in="SourceGraphic" in2="effect1_dropShadow" result="shape"/>
</filter>
<linearGradient id="paint0_linear" x1="5.67818" y1="10.8184" x2="18.9287" y2="33.2132" gradientUnits="userSpaceOnUse">
<stop stop-color="white" stop-opacity="0.25"/>
<stop offset="1" stop-color="white" stop-opacity="0"/>
</linearGradient>
</defs>
</svg>
