<svg width="125" height="23" viewBox="0 0 125 23" fill="none" xmlns="http://www.w3.org/2000/svg">
<path d="M118.449 22.5562H116.177L118.34 17.6341L114.475 8.83861H116.75L119.477 15.046L122.205 8.83861H124.48L118.449 22.5562ZM62.7884 19.7732L64.6055 19.0128C64.7935 19.5038 65.1249 19.9267 65.5566 20.2268C65.9883 20.5268 66.5003 20.6899 67.026 20.695C67.368 20.7141 67.71 20.6587 68.0285 20.5326C68.347 20.4065 68.6342 20.2127 68.8704 19.9647C69.1065 19.7166 69.286 19.4201 69.3963 19.0959C69.5066 18.7716 69.5451 18.4272 69.5091 18.0866V17.1569C69.1978 17.5384 68.8009 17.8411 68.3506 18.0404C67.9002 18.2396 67.4092 18.3298 66.9175 18.3036C65.7674 18.2811 64.6703 17.8156 63.8548 17.0043C63.3971 16.5582 63.0343 16.024 62.7884 15.434C62.5425 14.844 62.4186 14.2103 62.4241 13.5711C62.4318 12.3454 62.9014 11.1676 63.7393 10.2729C64.1493 9.82631 64.6472 9.46919 65.2017 9.2239C65.7562 8.97861 66.3553 8.85045 66.9616 8.84743C67.4393 8.83529 67.9139 8.92596 68.3535 9.11331C68.793 9.30066 69.1871 9.58031 69.5091 9.93331V9.13324H71.4939V17.627C71.5726 18.9854 71.1128 20.3201 70.2139 21.3416C69.7954 21.7484 69.2986 22.0658 68.7536 22.2746C68.2086 22.4835 67.6268 22.5793 67.0437 22.5562C66.1386 22.5656 65.2511 22.3061 64.4936 21.8107C63.736 21.3152 63.1426 20.6061 62.7884 19.7732ZM64.5032 13.5985C64.4686 13.9594 64.5099 14.3236 64.6246 14.6676C64.7393 15.0116 64.9248 15.3277 65.1692 15.5957C65.4135 15.8636 65.7112 16.0774 66.0432 16.2232C66.3752 16.369 66.7341 16.4437 67.0967 16.4424C67.4593 16.4411 67.8176 16.3639 68.1485 16.2157C68.4794 16.0674 68.7757 15.8515 69.0181 15.5819C69.2605 15.3122 69.4437 14.9947 69.5559 14.6499C69.6681 14.3051 69.7069 13.9406 69.6697 13.5799C69.6961 13.2244 69.6515 12.8671 69.5384 12.529C69.4253 12.1909 69.2459 11.8787 69.0108 11.6107C68.7757 11.3426 68.4895 11.1241 68.1691 10.9679C67.8486 10.8117 67.5002 10.7208 67.1442 10.7007C66.7778 10.7096 66.417 10.7927 66.0835 10.9449C65.7501 11.097 65.451 11.3152 65.2041 11.5862C64.9573 11.8571 64.768 12.1753 64.6475 12.5214C64.527 12.8676 64.4779 13.2346 64.5032 13.6002V13.5985ZM12.0329 11.6075L15.1203 14.6905L2.09952 21.8162C2.0087 21.8675 1.91403 21.9117 1.81637 21.9485L12.0329 11.6075ZM0.452632 20.7673C0.444693 19.707 0.361775 2.89058 0.356483 1.62917C0.331675 1.40667 0.367817 1.18161 0.461042 0.978072C0.554268 0.77453 0.70107 0.600157 0.885746 0.473607L11.5866 11.163L0.932497 21.9458C0.761835 21.8039 0.628769 21.6222 0.545071 21.4166C0.461374 21.2111 0.429625 20.9881 0.452632 20.7673ZM28.4154 16.0198C27.7503 15.3478 27.2242 14.5512 26.867 13.6758C26.5099 12.8003 26.3288 11.863 26.3341 10.9175C26.3393 9.972 26.5308 9.03681 26.8976 8.16534C27.2644 7.29388 27.7993 6.50323 28.4718 5.83857C29.8217 4.44933 31.6632 3.6459 33.5997 3.60135C35.5363 3.5568 37.4128 4.2747 38.8251 5.6004L37.4243 7.05411C36.4558 6.12055 35.1617 5.60101 33.8165 5.6057C32.3983 5.605 31.0379 6.1677 30.0346 7.17002C29.0313 8.17234 28.4672 9.53217 28.4665 10.9504C28.4658 12.3686 29.0285 13.729 30.0309 14.7323C31.0332 15.7356 32.393 16.2996 33.8112 16.3003C35.8586 16.3003 38.3382 15.2506 38.5878 12.2947H33.7989V10.295H40.5461C40.6333 10.7305 40.6738 11.174 40.6669 11.6181C40.6933 12.514 40.5353 13.4057 40.2028 14.2379C39.8704 15.0702 39.3705 15.8253 38.7342 16.4565C37.4075 17.6844 35.6546 18.3469 33.8474 18.3036C32.8338 18.3131 31.829 18.1155 30.8945 17.7229C29.96 17.3304 29.1155 16.7511 28.4127 16.0207L28.4154 16.0198ZM77.7339 17.0457C77.2678 16.5951 76.9008 16.0523 76.6563 15.4519C76.4117 14.8515 76.2951 14.2068 76.3137 13.5588C76.2801 12.956 76.3688 12.3526 76.5746 11.7851C76.7803 11.2175 77.0989 10.6975 77.511 10.2563C77.9231 9.81509 78.4202 9.46189 78.9724 9.21794C79.5247 8.974 80.1206 8.84437 80.7242 8.83685C81.6069 8.83652 82.4655 9.12458 83.1694 9.65721C83.8323 10.1604 84.346 10.8342 84.6558 11.6067L84.9848 12.3785L78.646 15.0081C78.8432 15.4523 79.1699 15.8267 79.5834 16.0822C79.9968 16.3378 80.4777 16.4627 80.9633 16.4406C81.4291 16.4485 81.8887 16.3323 82.2949 16.104C82.701 15.8757 83.0391 15.5434 83.2744 15.1413L84.908 16.2271C84.4682 16.8707 83.8772 17.3965 83.1868 17.7583C82.4964 18.1202 81.7278 18.3072 80.9483 18.3027C79.7546 18.3118 78.6029 17.8622 77.7312 17.0466L77.7339 17.0457ZM78.9521 11.5652C78.7201 11.8143 78.5439 12.1098 78.435 12.4322C78.3261 12.7547 78.2871 13.0966 78.3205 13.4353L82.5546 11.6666C82.3896 11.3489 82.1371 11.085 81.827 10.9061C81.517 10.7271 81.1622 10.6406 80.8045 10.6566C80.4494 10.6704 80.1011 10.7583 79.7821 10.9148C79.463 11.0713 79.1803 11.2928 78.9521 11.5652ZM53.2952 16.8764C52.4365 15.9762 51.9619 14.7772 51.972 13.5332C51.97 12.9116 52.092 12.2959 52.3309 11.722C52.5697 11.1482 52.9206 10.6277 53.363 10.1911C53.8054 9.75443 54.3304 9.41039 54.9073 9.17908C55.4843 8.94776 56.1015 8.83382 56.723 8.84391C57.9068 8.84293 59.0515 9.2678 59.948 10.0409C60.446 10.4845 60.8403 11.0322 61.1031 11.6451C61.3659 12.2581 61.4908 12.9213 61.4687 13.5879C61.4785 14.2092 61.3633 14.8261 61.13 15.402C60.8967 15.978 60.55 16.5011 60.1105 16.9404C59.671 17.3797 59.1477 17.7262 58.5717 17.9594C57.9957 18.1925 57.3787 18.3074 56.7574 18.2974C56.1142 18.3072 55.4757 18.1863 54.8805 17.942C54.2854 17.6978 53.746 17.3352 53.2952 16.8764ZM56.7512 10.7016C56.3917 10.698 56.0354 10.7688 55.7045 10.9093C55.3736 11.0499 55.0753 11.2572 54.8283 11.5184C54.3182 12.0741 54.0412 12.8046 54.0547 13.5588C54.0279 13.9261 54.0771 14.2951 54.1991 14.6427C54.3211 14.9902 54.5133 15.309 54.7638 15.579C55.0143 15.8491 55.3177 16.0647 55.6552 16.2125C55.9926 16.3602 56.3568 16.4369 56.7252 16.4378C57.0935 16.4388 57.4581 16.3638 57.7963 16.2178C58.1344 16.0717 58.4389 15.8576 58.6908 15.5887C58.9426 15.3199 59.1364 15.0021 59.2601 14.6552C59.3838 14.3082 59.4348 13.9395 59.4099 13.572C59.4327 13.2078 59.3816 12.8427 59.2595 12.4987C59.1375 12.1548 58.9472 11.8391 58.6999 11.5707C58.4527 11.3023 58.1537 11.0867 57.8209 10.9368C57.4881 10.787 57.1285 10.7061 56.7636 10.699L56.7512 10.7016ZM42.8475 16.8764C41.9889 15.9762 41.5143 14.7771 41.5243 13.5332C41.5224 12.9115 41.6444 12.2956 41.8834 11.7216C42.1223 11.1476 42.4734 10.6271 42.916 10.1904C43.3585 9.75376 43.8837 9.40976 44.4609 9.17855C45.038 8.94735 45.6555 8.83358 46.2771 8.84391C47.4614 8.84321 48.6066 9.26802 49.5039 10.0409C50.001 10.4851 50.3946 11.0329 50.6569 11.6458C50.9192 12.2586 51.0438 12.9216 51.022 13.5879C51.0295 14.2152 50.9107 14.8376 50.6726 15.418C50.4345 15.9984 50.082 16.525 49.6362 16.9663C48.7144 17.8369 47.49 18.3145 46.2222 18.2981C44.9544 18.2816 43.7428 17.7723 42.844 16.8781L42.8475 16.8764ZM46.3036 10.7016H46.2992C45.94 10.6986 45.5841 10.7695 45.2535 10.91C44.923 11.0506 44.6249 11.2577 44.378 11.5184C43.8685 12.0745 43.5917 12.8047 43.6043 13.5588C43.5776 13.9261 43.6268 14.2951 43.7488 14.6427C43.8708 14.9902 44.063 15.309 44.3135 15.579C44.564 15.8491 44.8674 16.0647 45.2049 16.2125C45.5423 16.3602 45.9065 16.4369 46.2749 16.4378C46.6432 16.4388 47.0078 16.3638 47.346 16.2178C47.6842 16.0717 47.9886 15.8576 48.2405 15.5887C48.4923 15.3199 48.6861 15.0021 48.8098 14.6552C48.9335 14.3082 48.9845 13.9395 48.9596 13.572C48.9823 13.2073 48.9309 12.8418 48.8084 12.4975C48.686 12.1532 48.4951 11.8372 48.2472 11.5688C47.9993 11.3003 47.6996 11.0848 47.3662 10.9353C47.0327 10.7858 46.6725 10.7054 46.3071 10.699L46.3036 10.7016ZM105.88 17.2742C105.583 16.8995 105.367 16.4676 105.244 16.0054C105.122 15.5432 105.096 15.0608 105.168 14.5882C105.286 13.8164 105.669 13.1099 106.251 12.5904C106.834 12.0709 107.58 11.771 108.36 11.7425C108.544 11.724 108.737 11.7143 108.933 11.7143C109.818 11.735 110.697 11.869 111.549 12.113C111.464 11.5285 111.16 10.9979 110.7 10.6281C110.239 10.2584 109.655 10.0769 109.066 10.1203C108.579 10.1097 108.098 10.2295 107.673 10.4675C107.248 10.7054 106.895 11.0528 106.649 11.4735L104.973 10.3505C105.431 9.67648 106.049 9.12616 106.771 8.74862C107.493 8.37108 108.297 8.17805 109.112 8.18674C109.752 8.1756 110.388 8.295 110.981 8.53765C111.573 8.78031 112.11 9.14113 112.559 9.59811C112.973 10.0566 113.287 10.5969 113.48 11.1841C113.673 11.7713 113.741 12.3924 113.68 13.0074V18.0222H111.598V16.8966C111.137 17.4815 110.504 17.9067 109.789 18.1122C109.36 18.2284 108.917 18.2877 108.473 18.2886C107.994 18.3078 107.517 18.2277 107.07 18.0534C106.624 17.8792 106.219 17.6144 105.88 17.276V17.2742ZM107.335 14.9472C107.33 15.1358 107.364 15.3234 107.435 15.4984C107.505 15.6735 107.611 15.8323 107.745 15.9653C107.878 16.0983 108.038 16.2026 108.214 16.2719C108.389 16.3411 108.577 16.3739 108.765 16.3683C108.944 16.367 109.122 16.3421 109.295 16.2942C109.853 16.1592 110.364 15.873 110.77 15.4668C111.177 15.0606 111.463 14.5503 111.599 13.9919C111.037 13.796 110.456 13.6568 109.866 13.5764C109.654 13.5436 109.439 13.5265 109.224 13.5252C107.852 13.5279 107.349 14.2936 107.336 14.949L107.335 14.9472ZM103.076 18.0204H100.994V4.08318H103.077V18.0204H103.076ZM92.0311 18.0204H89.9519V4.08318H92.0337H94.9923C96.1695 4.08318 97.2985 4.55084 98.131 5.38327C98.9634 6.21569 99.431 7.34471 99.431 8.52194C99.431 9.69917 98.9634 10.8282 98.131 11.6606C97.2985 12.493 96.1695 12.9607 94.9923 12.9607H92.0337V18.016L92.0311 18.0204ZM92.0363 10.8825H94.9914C95.6085 10.8705 96.1963 10.617 96.6285 10.1763C97.0607 9.73571 97.3028 9.14312 97.3028 8.52591C97.3028 7.90869 97.0607 7.3161 96.6285 6.87546C96.1963 6.43483 95.6085 6.1813 94.9914 6.16936H92.0363V10.8825ZM75.159 18.0222H73.0764V4.08495H75.159V18.0222ZM12.4757 11.1603L15.6928 7.90446L20.1227 10.3205C21.2147 10.916 20.652 11.6605 20.1227 11.9524L15.6963 14.3756L12.4757 11.1603ZM1.64524 0.345703C1.80412 0.364667 1.95813 0.412815 2.09952 0.487722L15.1176 7.59043L12.0303 10.7149L1.64524 0.345703Z" fill="#6D72F6"/>
</svg>
