<svg width="150" height="27" viewBox="0 0 150 27" fill="none" xmlns="http://www.w3.org/2000/svg">
<path d="M142.248 26.5795H139.53L142.118 20.69L137.494 10.166H140.216L143.478 17.5933L146.743 10.166H149.465L142.248 26.5795ZM75.6484 23.2495L77.8227 22.3397C78.0477 22.9271 78.4442 23.4333 78.9607 23.7922C79.4773 24.1512 80.0899 24.3464 80.7189 24.3525C81.1281 24.3754 81.5374 24.3091 81.9184 24.1582C82.2994 24.0074 82.6432 23.7755 82.9257 23.4786C83.2083 23.1818 83.423 22.8271 83.555 22.4391C83.687 22.0511 83.733 21.6391 83.69 21.2315V20.119C83.3175 20.5756 82.8426 20.9378 82.3038 21.1762C81.7649 21.4146 81.1774 21.5225 80.5891 21.4911C79.2129 21.4642 77.9002 20.9073 76.9245 19.9364C76.3767 19.4026 75.9427 18.7635 75.6485 18.0575C75.3542 17.3516 75.2059 16.5933 75.2125 15.8285C75.2218 14.3619 75.7837 12.9527 76.7862 11.8821C77.2769 11.3478 77.8726 10.9205 78.536 10.627C79.1995 10.3335 79.9164 10.1801 80.6418 10.1765C81.2134 10.162 81.7813 10.2705 82.3072 10.4946C82.8332 10.7188 83.3047 11.0534 83.69 11.4758V10.5185H86.0648V20.6816C86.1591 22.3069 85.6088 23.9039 84.5334 25.1262C84.0326 25.6129 83.4381 25.9928 82.786 26.2426C82.1339 26.4925 81.4378 26.6071 80.74 26.5795C79.657 26.5907 78.5951 26.2802 77.6887 25.6874C76.7823 25.0946 76.0723 24.2462 75.6484 23.2495ZM77.7003 15.8613C77.6588 16.2931 77.7083 16.7289 77.8456 17.1405C77.9828 17.5521 78.2047 17.9304 78.4971 18.251C78.7894 18.5716 79.1457 18.8274 79.5429 19.0019C79.9402 19.1764 80.3696 19.2657 80.8034 19.2642C81.2373 19.2626 81.666 19.1702 82.062 18.9928C82.458 18.8155 82.8124 18.5571 83.1024 18.2345C83.3925 17.9118 83.6117 17.5319 83.746 17.1194C83.8803 16.7068 83.9267 16.2707 83.8821 15.8391C83.9138 15.4137 83.8604 14.9862 83.725 14.5816C83.5897 14.1771 83.3751 13.8035 83.0937 13.4828C82.8124 13.1621 82.4701 12.9006 82.0866 12.7137C81.7031 12.5268 81.2862 12.4181 80.8603 12.394C80.4219 12.4047 79.9902 12.5041 79.5912 12.6861C79.1922 12.8682 78.8343 13.1293 78.539 13.4535C78.2437 13.7777 78.0171 14.1584 77.8729 14.5726C77.7288 14.9868 77.67 15.4259 77.7003 15.8634V15.8613ZM14.9178 13.4791L18.612 17.1679L3.03221 25.694C2.92353 25.7555 2.81026 25.8084 2.6934 25.8523L14.9178 13.4791ZM1.06165 24.4391C1.05215 23.1704 0.952933 3.04893 0.9466 1.53961C0.916918 1.27339 0.960163 1.0041 1.07171 0.760556C1.18326 0.517012 1.35891 0.308369 1.57988 0.156947L14.3838 12.9471L1.63582 25.8492C1.43162 25.6794 1.2724 25.4619 1.17225 25.216C1.07211 24.97 1.03412 24.7032 1.06165 24.4391ZM34.52 18.7585C33.7242 17.9544 33.0947 17.0013 32.6674 15.9538C32.2401 14.9062 32.0234 13.7847 32.0296 12.6534C32.0359 11.5221 32.265 10.4031 32.7039 9.36036C33.1428 8.31762 33.7829 7.37159 34.5875 6.57631C36.2027 4.91403 38.4061 3.9527 40.7232 3.89939C43.0404 3.84609 45.2857 4.70508 46.9756 6.29133L45.2995 8.03074C44.1406 6.91371 42.5922 6.29206 40.9826 6.29766C39.2857 6.29682 37.6579 6.97012 36.4574 8.16943C35.257 9.36874 34.582 10.9958 34.5812 12.6927C34.5804 14.3897 35.2537 16.0174 36.453 17.2179C37.6523 18.4184 39.2794 19.0933 40.9763 19.0942C43.426 19.0942 46.393 17.8382 46.6916 14.3013H40.9615V11.9085H49.0348C49.1391 12.4296 49.1876 12.9604 49.1794 13.4917C49.2109 14.5636 49.0219 15.6306 48.6241 16.6264C48.2263 17.6223 47.6282 18.5258 46.8669 19.281C45.2794 20.7502 43.1819 21.543 41.0196 21.4911C39.8068 21.5025 38.6045 21.266 37.4863 20.7963C36.3682 20.3266 35.3577 19.6336 34.5168 18.7596L34.52 18.7585ZM93.5312 19.986C92.9736 19.4469 92.5344 18.7974 92.2418 18.079C91.9492 17.3606 91.8096 16.5891 91.8319 15.8138C91.7917 15.0925 91.8979 14.3706 92.1441 13.6915C92.3903 13.0124 92.7714 12.3901 93.2645 11.8622C93.7576 11.3343 94.3524 10.9117 95.0132 10.6198C95.6739 10.3279 96.387 10.1728 97.1093 10.1638C98.1654 10.1634 99.1928 10.5081 100.035 11.1454C100.828 11.7476 101.443 12.5538 101.813 13.478L102.207 14.4015L94.6226 17.5479C94.8586 18.0794 95.2495 18.5274 95.7442 18.8332C96.2389 19.139 96.8143 19.2884 97.3953 19.262C97.9527 19.2715 98.5026 19.1325 98.9886 18.8592C99.4745 18.586 99.879 18.1884 100.161 17.7073L102.115 19.0066C101.589 19.7766 100.882 20.4057 100.056 20.8387C99.2297 21.2717 98.31 21.4954 97.3773 21.4901C95.949 21.501 94.5711 20.963 93.5281 19.9871L93.5312 19.986ZM94.9888 13.4284C94.7113 13.7264 94.5004 14.0801 94.3701 14.4659C94.2398 14.8517 94.1931 15.2608 94.2331 15.666L99.2993 13.5498C99.1019 13.1696 98.7998 12.8539 98.4288 12.6397C98.0578 12.4256 97.6332 12.322 97.2053 12.3413C96.7804 12.3577 96.3637 12.4629 95.9819 12.6501C95.6002 12.8374 95.2619 13.1025 94.9888 13.4284ZM64.2895 19.7834C63.262 18.7063 62.6942 17.2716 62.7063 15.7832C62.7039 15.0394 62.8499 14.3027 63.1357 13.6161C63.4215 12.9294 63.8413 12.3067 64.3706 11.7842C64.9 11.2618 65.5282 10.8501 66.2185 10.5733C66.9088 10.2966 67.6474 10.1602 68.391 10.1723C69.8075 10.1711 71.1771 10.6795 72.2498 11.6046C72.8457 12.1353 73.3175 12.7906 73.632 13.5241C73.9464 14.2575 74.0958 15.051 74.0694 15.8486C74.0811 16.592 73.9433 17.3302 73.6641 18.0193C73.3849 18.7084 72.9701 19.3344 72.4442 19.86C71.9184 20.3857 71.2923 20.8003 70.6031 21.0792C69.9138 21.3582 69.1756 21.4957 68.4322 21.4837C67.6625 21.4954 66.8985 21.3508 66.1864 21.0585C65.4743 20.7662 64.829 20.3324 64.2895 19.7834ZM68.4248 12.3951C67.9946 12.3908 67.5682 12.4754 67.1723 12.6436C66.7764 12.8118 66.4195 13.0599 66.1239 13.3725C65.5136 14.0374 65.1822 14.9114 65.1982 15.8138C65.1662 16.2534 65.2251 16.6948 65.371 17.1107C65.517 17.5266 65.747 17.908 66.0468 18.2311C66.3465 18.5542 66.7096 18.8122 67.1133 18.989C67.5171 19.1658 67.9529 19.2576 68.3936 19.2587C68.8344 19.2598 69.2706 19.1701 69.6752 18.9953C70.0798 18.8206 70.4442 18.5644 70.7455 18.2427C71.0468 17.921 71.2787 17.5408 71.4268 17.1257C71.5748 16.7105 71.6358 16.2693 71.606 15.8296C71.6333 15.3938 71.5721 14.957 71.4261 14.5454C71.2801 14.1339 71.0523 13.7562 70.7565 13.435C70.4606 13.1138 70.1028 12.8558 69.7047 12.6766C69.3065 12.4973 68.8762 12.4005 68.4396 12.3919L68.4248 12.3951ZM51.7885 19.7834C50.7612 18.7063 50.1933 17.2716 50.2053 15.7832C50.203 15.0392 50.349 14.3023 50.6349 13.6156C50.9208 12.9288 51.3409 12.3059 51.8704 11.7834C52.4 11.261 53.0284 10.8494 53.719 10.5727C54.4095 10.2961 55.1484 10.1599 55.8922 10.1723C57.3092 10.1715 58.6794 10.6798 59.7531 11.6046C60.3479 12.136 60.8188 12.7915 61.1327 13.5248C61.4466 14.2581 61.5957 15.0514 61.5695 15.8486C61.5785 16.5992 61.4363 17.3439 61.1515 18.0384C60.8666 18.7329 60.4449 19.363 59.9114 19.891C58.8085 20.9327 57.3434 21.5042 55.8265 21.4845C54.3095 21.4648 52.8598 20.8554 51.7843 19.7855L51.7885 19.7834ZM55.9238 12.3951H55.9186C55.4888 12.3914 55.0629 12.4763 54.6674 12.6445C54.2719 12.8126 53.9153 13.0604 53.6197 13.3725C53.0102 14.0378 52.6789 14.9115 52.6941 15.8138C52.6621 16.2534 52.7209 16.6948 52.8669 17.1107C53.0129 17.5266 53.2429 17.908 53.5427 18.2311C53.8424 18.5542 54.2054 18.8122 54.6092 18.989C55.0129 19.1658 55.4487 19.2576 55.8895 19.2587C56.3302 19.2598 56.7665 19.1701 57.1711 18.9953C57.5757 18.8206 57.94 18.5644 58.2414 18.2427C58.5427 17.921 58.7746 17.5408 58.9226 17.1257C59.0707 16.7105 59.1317 16.2693 59.1018 15.8296C59.129 15.3932 59.0675 14.9558 58.921 14.5439C58.7745 14.1319 58.546 13.7539 58.2494 13.4327C57.9528 13.1114 57.5942 12.8536 57.1953 12.6747C56.7963 12.4958 56.3652 12.3996 55.928 12.3919L55.9238 12.3951ZM127.209 20.2594C126.854 19.8111 126.595 19.2943 126.448 18.7413C126.301 18.1883 126.271 17.611 126.357 17.0455C126.498 16.1221 126.956 15.2767 127.653 14.6551C128.35 14.0335 129.243 13.6747 130.176 13.6406C130.397 13.6184 130.628 13.6068 130.862 13.6068C131.921 13.6316 132.973 13.7919 133.992 14.0839C133.89 13.3845 133.527 12.7496 132.976 12.3072C132.425 11.8647 131.726 11.6476 131.021 11.6995C130.439 11.6868 129.863 11.8302 129.355 12.1149C128.846 12.3996 128.423 12.8153 128.129 13.3186L126.124 11.975C126.672 11.1685 127.411 10.51 128.275 10.0583C129.139 9.60654 130.101 9.37557 131.076 9.38596C131.842 9.37263 132.603 9.5155 133.312 9.80584C134.021 10.0962 134.663 10.5279 135.2 11.0747C135.696 11.6234 136.072 12.2698 136.303 12.9724C136.534 13.675 136.615 14.4182 136.542 15.1541V21.1544H134.051V19.8077C133.499 20.5074 132.742 21.0162 131.886 21.2621C131.372 21.4011 130.843 21.4721 130.311 21.4732C129.738 21.4961 129.167 21.4003 128.633 21.1918C128.1 20.9833 127.615 20.6665 127.209 20.2615V20.2594ZM128.95 17.4751C128.944 17.7008 128.985 17.9252 129.069 18.1347C129.154 18.3441 129.28 18.5342 129.44 18.6933C129.6 18.8524 129.791 18.9772 130.001 19.0601C130.211 19.143 130.436 19.1822 130.662 19.1754C130.876 19.1739 131.089 19.1441 131.295 19.0868C131.963 18.9253 132.574 18.5828 133.06 18.0968C133.547 17.6108 133.89 17.0002 134.052 16.332C133.379 16.0976 132.685 15.931 131.979 15.8349C131.724 15.7956 131.468 15.7752 131.21 15.7737C129.568 15.7768 128.966 16.693 128.951 17.4772L128.95 17.4751ZM123.854 21.1523H121.363V4.47592H123.855V21.1523H123.854ZM110.638 21.1523H108.151V4.47592H110.641H114.181C115.59 4.47592 116.941 5.03549 117.937 6.03152C118.933 7.02754 119.493 8.37845 119.493 9.78704C119.493 11.1956 118.933 12.5465 117.937 13.5426C116.941 14.5386 115.59 15.0982 114.181 15.0982H110.641V21.147L110.638 21.1523ZM110.645 12.6115H114.18C114.919 12.5972 115.622 12.2938 116.139 11.7666C116.656 11.2394 116.946 10.5303 116.946 9.79179C116.946 9.05327 116.656 8.34422 116.139 7.81698C115.622 7.28974 114.919 6.98639 114.18 6.97211H110.645V12.6115ZM90.4503 21.1544H87.9583V4.47804H90.4503V21.1544ZM15.4477 12.9439L19.297 9.04821L24.5975 11.9391C25.9042 12.6516 25.2308 13.5424 24.5975 13.8918L19.3012 16.7911L15.4477 12.9439ZM2.48864 0.00390625C2.67875 0.0265975 2.86303 0.0842075 3.03221 0.173837L18.6088 8.67247L14.9147 12.4109L2.48864 0.00390625Z" fill="#6D72F6"/>
</svg>
