<svg width="137" height="32" viewBox="0 0 137 32" fill="none" xmlns="http://www.w3.org/2000/svg">
<path d="M66.8386 28.7298H64.412V12.9965H66.7623V15.0305H66.8073C67.1585 14.3403 67.6991 13.7644 68.3658 13.3703C69.0325 12.9763 69.7977 12.7804 70.5717 12.8056C73.5958 12.8056 75.5504 15.2009 75.5504 18.9075C75.5504 22.6142 73.6134 25.0203 70.6168 25.0203C69.8577 25.0469 69.1064 24.8597 68.4485 24.4802C67.7906 24.1007 67.2525 23.5441 66.8954 22.8737H66.8386V28.7298ZM69.9293 14.8513C68.0745 14.8513 66.8279 16.4818 66.8279 18.9085C66.8279 21.3734 68.0451 22.9657 69.9293 22.9657C71.8556 22.9657 73.0532 21.4116 73.0532 18.9085C73.0532 16.4054 71.8565 14.8513 69.9303 14.8513H69.9293ZM53.2892 28.7298H50.8615V12.9965H53.2118V15.0305H53.2568C53.6081 14.3406 54.1486 13.765 54.8151 13.3712C55.4816 12.9773 56.2465 12.7814 57.0203 12.8065C60.0443 12.8065 61.999 15.2019 61.999 18.9085C61.999 22.6151 60.0619 25.0213 57.0653 25.0213C56.3062 25.0478 55.555 24.8607 54.897 24.4812C54.2391 24.1017 53.701 23.545 53.344 22.8746H53.2892V28.7298ZM56.3798 14.8513C54.525 14.8513 53.2784 16.4818 53.2784 18.9085C53.2784 21.3734 54.4956 22.9657 56.3798 22.9657C58.3061 22.9657 59.5037 21.4116 59.5037 18.9085C59.5037 16.4054 58.3061 14.8513 56.3798 14.8513ZM8.05563 31.025C6.01381 31.025 4.43225 28.7589 3.27669 27.1078C1.77362 24.8459 0.753467 22.2982 0.280053 19.624C-0.320671 16.8619 0.0515758 13.9769 1.33377 11.4577C1.96985 10.3148 2.89134 9.35635 4.00834 8.67581C5.12534 7.99528 6.39968 7.61595 7.70701 7.57483H7.79514C8.86913 7.64067 9.92057 7.91159 10.8926 8.37295H10.9024H10.9083H10.9142C11.5207 8.67283 12.1755 8.86281 12.8483 8.93409C13.4863 8.85656 14.1071 8.6739 14.6854 8.39352H14.6952H14.7041H14.7089C15.8334 7.87194 17.0453 7.56442 18.2824 7.48669C18.4254 7.48669 18.5928 7.49551 18.7799 7.51215C19.9012 7.54835 20.9987 7.84504 21.9856 8.37875C22.9724 8.91246 23.8215 9.66853 24.4656 10.5871C23.4552 11.2128 22.6182 12.0823 22.0314 13.1158C21.4447 14.1494 21.127 15.3138 21.1076 16.5021C21.0976 17.4176 21.2772 18.3253 21.6352 19.168C21.9931 20.0107 22.5217 20.7702 23.1877 21.3985C23.7906 21.9797 24.4958 22.4445 25.2677 22.7695V22.7774C24.7751 24.3451 24.0456 25.8283 23.1044 27.1754C21.7334 29.2378 20.4231 30.9476 18.3735 30.978H18.2579C17.4659 30.9618 16.6875 30.7683 15.9801 30.4119H15.9742C15.1275 29.998 14.1991 29.7778 13.2567 29.7676C12.2726 29.7718 11.302 29.997 10.4167 30.4266H10.4118H10.402H10.3971C9.69762 30.7701 8.93718 30.9721 8.15944 31.021H8.05563V31.025ZM88.9285 25.0878C87.3658 25.151 85.8259 24.6963 84.5482 23.7942C84.0078 23.3817 83.5658 22.8542 83.2544 22.2499C82.9429 21.6456 82.7697 20.9796 82.7473 20.3001H85.2307C85.409 21.8934 86.9661 22.9638 89.1078 22.9638C91.1457 22.9638 92.6244 21.91 92.6244 20.4578C92.6244 19.2003 91.7303 18.4433 89.6356 17.9292L87.534 17.4229C84.5589 16.7051 83.1732 15.3155 83.1732 13.0514C83.1732 10.2721 85.5999 8.33215 89.0735 8.33215C92.4961 8.33215 94.8513 10.229 94.9277 13.0514H92.4795C92.3345 11.4502 91.0164 10.4562 89.0402 10.4562C87.1012 10.4562 85.7478 11.4541 85.7478 12.8839C85.7478 14.0267 86.6008 14.7034 88.6925 15.2215L90.4788 15.6592C91.8024 15.8876 93.0436 16.4574 94.0796 17.3123C94.4541 17.6807 94.7463 18.1243 94.937 18.6137C95.1277 19.1032 95.2127 19.6275 95.1862 20.1522C95.1862 23.1988 92.7879 25.0888 88.9276 25.0888L88.9285 25.0878ZM131.609 25.0428C128.171 25.0428 126.035 22.7131 126.035 18.9634C125.966 17.3384 126.494 15.7444 127.52 14.4821C128.02 13.9249 128.637 13.484 129.326 13.1903C130.015 12.8966 130.76 12.7573 131.508 12.7821C132.234 12.7542 132.958 12.8833 133.63 13.1604C134.302 13.4376 134.906 13.8563 135.402 14.3881C136.395 15.5926 136.905 17.1228 136.835 18.6823V19.5147H128.484V19.6606C128.438 20.1004 128.487 20.5449 128.627 20.9643C128.767 21.3836 128.996 21.768 129.297 22.0917C129.598 22.4153 129.966 22.6707 130.374 22.8405C130.782 23.0104 131.222 23.0908 131.664 23.0764C132.246 23.1251 132.827 22.9824 133.32 22.67C133.813 22.3576 134.191 21.8927 134.395 21.346H136.699C136.612 21.8762 136.421 22.3839 136.136 22.84C135.852 23.2961 135.481 23.6916 135.043 24.0038C134.039 24.7082 132.835 25.0727 131.608 25.0438L131.609 25.0428ZM131.511 14.7377C130.705 14.7514 129.937 15.0823 129.373 15.6586C128.809 16.235 128.496 17.0104 128.5 17.8166H134.411C134.435 17.4207 134.379 17.024 134.244 16.651C134.109 16.278 133.899 15.9367 133.626 15.6483C133.354 15.3598 133.026 15.1303 132.661 14.974C132.297 14.8177 131.904 14.738 131.507 14.7397L131.511 14.7377ZM110.431 25.0438C109.675 25.0727 108.921 24.9416 108.22 24.6591C107.518 24.3766 106.884 23.9491 106.359 23.4044C105.296 22.1542 104.747 20.5469 104.823 18.9075C104.748 17.2707 105.298 15.6664 106.362 14.4204C107.456 13.3706 108.914 12.7845 110.43 12.7845C111.946 12.7845 113.404 13.3706 114.498 14.4204C115.563 15.6661 116.113 17.2705 116.037 18.9075C116.114 20.5469 115.565 22.1541 114.502 23.4044C113.977 23.9488 113.343 24.3762 112.641 24.6587C111.94 24.9412 111.187 25.0724 110.431 25.0438ZM110.431 14.7847C108.703 14.7847 107.297 16.6385 107.297 18.9173C107.297 21.1961 108.702 23.049 110.431 23.049C112.159 23.049 113.565 21.1952 113.565 18.9173C113.565 16.6395 112.154 14.7847 110.43 14.7847H110.431ZM101.737 24.8979C99.3433 24.8979 98.4071 24.0028 98.4071 21.7063V14.9218H96.6894V12.9965H98.4091V10.1997H100.848V12.9975H103.095V14.9218H100.848V21.439C100.848 22.4653 101.291 22.9226 102.286 22.9226C102.553 22.9241 102.82 22.9052 103.084 22.8658V24.7882C102.64 24.8698 102.188 24.9065 101.736 24.8979H101.737ZM37.0055 24.8205H34.3898L40.245 8.60342H42.9645L48.8197 24.8185H46.156L44.6724 20.4352H38.492L37.0084 24.8185L37.0055 24.8205ZM41.5474 11.2984L39.1315 18.412H44.028L41.616 11.2984H41.5474ZM120.89 24.8176H118.462V12.9965H120.777V15.009H120.834C120.983 14.372 121.347 13.8057 121.864 13.4047C122.381 13.0038 123.02 12.7926 123.674 12.8065C123.953 12.8103 124.232 12.8404 124.505 12.8966V15.1549C124.152 15.0532 123.784 15.0076 123.416 15.0197C123.064 15.0045 122.712 15.066 122.385 15.1999C122.058 15.3339 121.765 15.5372 121.524 15.7958C121.284 16.0544 121.102 16.3621 120.993 16.6976C120.883 17.0331 120.847 17.3885 120.888 17.7392V24.8185L120.89 24.8176ZM12.909 7.16255C12.8077 7.16371 12.7064 7.15979 12.6054 7.15079C12.4922 5.40163 13.0784 3.67911 14.235 2.36205C15.4067 1.02794 17.0383 0.18452 18.8043 0C18.9472 1.80174 18.3768 3.58752 17.2159 4.97285C16.6921 5.61989 16.0379 6.14931 15.2958 6.52659C14.5537 6.90388 13.7404 7.12057 12.909 7.16255Z" fill="#6D72F6"/>
</svg>
